M48
; DRILL file {KiCad (5.1.10)-1} date 07/03/21 16:07:03
; FORMAT={-:-/ absolute / inch / decimal}
; #@! TF.CreationDate,2021-07-03T16:07:03+02:00
; #@! TF.GenerationSoftware,Kicad,Pcbnew,(5.1.10)-1
; #@! TF.FileFunction,Plated,1,2,PTH
FMAT,2
INCH
T1C0.0394
T2C0.0433
T3C0.0591
%
G90
G05
T1
X4.65Y-3.3
X4.65Y-3.4
X4.65Y-3.5
X4.65Y-3.6
X4.65Y-3.7
X4.65Y-3.8
X4.65Y-3.9
X4.65Y-4.0
X4.65Y-4.1
X5.42Y-3.125
X5.52Y-3.125
X5.62Y-3.125
X5.72Y-3.125
X6.65Y-3.6016
X6.65Y-3.7
X6.65Y-3.7984
X7.2209Y-3.6016
X7.2209Y-3.7984
T2
X7.6476Y-3.6114
X7.6476Y-3.7886
X7.9035Y-3.6114
X7.9035Y-3.7886
X8.35Y-3.6114
X8.35Y-3.7886
X8.6059Y-3.6114
X8.6059Y-3.7886
T3
G00X6.9197Y-3.4795
M15
G01X6.9709Y-3.4795
M16
G05
G00X6.9197Y-3.9205
M15
G01X6.9709Y-3.9205
M16
G05
T0
M30
