%TF.GenerationSoftware,KiCad,Pcbnew,(5.1.10)-1*%
%TF.CreationDate,2021-07-03T16:07:00+02:00*%
%TF.ProjectId,mccake-5.25-inch-bay,6d636361-6b65-42d3-952e-32352d696e63,rev?*%
%TF.SameCoordinates,Original*%
%TF.FileFunction,Legend,Bot*%
%TF.FilePolarity,Positive*%
%FSLAX46Y46*%
G04 Gerber Fmt 4.6, Leading zero omitted, Abs format (unit mm)*
G04 Created by KiCad (PCBNEW (5.1.10)-1) date 2021-07-03 16:07:00*
%MOMM*%
%LPD*%
G01*
G04 APERTURE LIST*
%ADD10C,0.120000*%
%ADD11C,0.150000*%
G04 APERTURE END LIST*
D10*
%TO.C,J1*%
X116780000Y-105470000D02*
X118110000Y-105470000D01*
X116780000Y-104140000D02*
X116780000Y-105470000D01*
X116780000Y-102870000D02*
X119440000Y-102870000D01*
X119440000Y-102870000D02*
X119440000Y-82490000D01*
X116780000Y-102870000D02*
X116780000Y-82490000D01*
X116780000Y-82490000D02*
X119440000Y-82490000D01*
D11*
X118443333Y-105922380D02*
X118443333Y-106636666D01*
X118490952Y-106779523D01*
X118586190Y-106874761D01*
X118729047Y-106922380D01*
X118824285Y-106922380D01*
X117443333Y-106922380D02*
X118014761Y-106922380D01*
X117729047Y-106922380D02*
X117729047Y-105922380D01*
X117824285Y-106065238D01*
X117919523Y-106160476D01*
X118014761Y-106208095D01*
X122118285Y-104544761D02*
X121975428Y-104592380D01*
X121737333Y-104592380D01*
X121642095Y-104544761D01*
X121594476Y-104497142D01*
X121546857Y-104401904D01*
X121546857Y-104306666D01*
X121594476Y-104211428D01*
X121642095Y-104163809D01*
X121737333Y-104116190D01*
X121927809Y-104068571D01*
X122023047Y-104020952D01*
X122070666Y-103973333D01*
X122118285Y-103878095D01*
X122118285Y-103782857D01*
X122070666Y-103687619D01*
X122023047Y-103640000D01*
X121927809Y-103592380D01*
X121689714Y-103592380D01*
X121546857Y-103640000D01*
X121118285Y-104592380D02*
X121118285Y-103592380D01*
X120880190Y-103592380D01*
X120737333Y-103640000D01*
X120642095Y-103735238D01*
X120594476Y-103830476D01*
X120546857Y-104020952D01*
X120546857Y-104163809D01*
X120594476Y-104354285D01*
X120642095Y-104449523D01*
X120737333Y-104544761D01*
X120880190Y-104592380D01*
X121118285Y-104592380D01*
X120165904Y-104306666D02*
X119689714Y-104306666D01*
X120261142Y-104592380D02*
X119927809Y-103592380D01*
X119594476Y-104592380D01*
X122094476Y-102004761D02*
X121951619Y-102052380D01*
X121713523Y-102052380D01*
X121618285Y-102004761D01*
X121570666Y-101957142D01*
X121523047Y-101861904D01*
X121523047Y-101766666D01*
X121570666Y-101671428D01*
X121618285Y-101623809D01*
X121713523Y-101576190D01*
X121904000Y-101528571D01*
X121999238Y-101480952D01*
X122046857Y-101433333D01*
X122094476Y-101338095D01*
X122094476Y-101242857D01*
X122046857Y-101147619D01*
X121999238Y-101100000D01*
X121904000Y-101052380D01*
X121665904Y-101052380D01*
X121523047Y-101100000D01*
X120523047Y-101957142D02*
X120570666Y-102004761D01*
X120713523Y-102052380D01*
X120808761Y-102052380D01*
X120951619Y-102004761D01*
X121046857Y-101909523D01*
X121094476Y-101814285D01*
X121142095Y-101623809D01*
X121142095Y-101480952D01*
X121094476Y-101290476D01*
X121046857Y-101195238D01*
X120951619Y-101100000D01*
X120808761Y-101052380D01*
X120713523Y-101052380D01*
X120570666Y-101100000D01*
X120523047Y-101147619D01*
X119618285Y-102052380D02*
X120094476Y-102052380D01*
X120094476Y-101052380D01*
X122761190Y-98512380D02*
X122142142Y-98512380D01*
X122475476Y-98893333D01*
X122332619Y-98893333D01*
X122237380Y-98940952D01*
X122189761Y-98988571D01*
X122142142Y-99083809D01*
X122142142Y-99321904D01*
X122189761Y-99417142D01*
X122237380Y-99464761D01*
X122332619Y-99512380D01*
X122618333Y-99512380D01*
X122713571Y-99464761D01*
X122761190Y-99417142D01*
X121713571Y-99417142D02*
X121665952Y-99464761D01*
X121713571Y-99512380D01*
X121761190Y-99464761D01*
X121713571Y-99417142D01*
X121713571Y-99512380D01*
X121332619Y-98512380D02*
X120713571Y-98512380D01*
X121046904Y-98893333D01*
X120904047Y-98893333D01*
X120808809Y-98940952D01*
X120761190Y-98988571D01*
X120713571Y-99083809D01*
X120713571Y-99321904D01*
X120761190Y-99417142D01*
X120808809Y-99464761D01*
X120904047Y-99512380D01*
X121189761Y-99512380D01*
X121285000Y-99464761D01*
X121332619Y-99417142D01*
X120427857Y-98512380D02*
X120094523Y-99512380D01*
X119761190Y-98512380D01*
X121919904Y-96020000D02*
X122015142Y-95972380D01*
X122158000Y-95972380D01*
X122300857Y-96020000D01*
X122396095Y-96115238D01*
X122443714Y-96210476D01*
X122491333Y-96400952D01*
X122491333Y-96543809D01*
X122443714Y-96734285D01*
X122396095Y-96829523D01*
X122300857Y-96924761D01*
X122158000Y-96972380D01*
X122062761Y-96972380D01*
X121919904Y-96924761D01*
X121872285Y-96877142D01*
X121872285Y-96543809D01*
X122062761Y-96543809D01*
X121443714Y-96972380D02*
X121443714Y-95972380D01*
X120872285Y-96972380D01*
X120872285Y-95972380D01*
X120396095Y-96972380D02*
X120396095Y-95972380D01*
X120158000Y-95972380D01*
X120015142Y-96020000D01*
X119919904Y-96115238D01*
X119872285Y-96210476D01*
X119824666Y-96400952D01*
X119824666Y-96543809D01*
X119872285Y-96734285D01*
X119919904Y-96829523D01*
X120015142Y-96924761D01*
X120158000Y-96972380D01*
X120396095Y-96972380D01*
X120927761Y-93908571D02*
X120784904Y-93956190D01*
X120737285Y-94003809D01*
X120689666Y-94099047D01*
X120689666Y-94241904D01*
X120737285Y-94337142D01*
X120784904Y-94384761D01*
X120880142Y-94432380D01*
X121261095Y-94432380D01*
X121261095Y-93432380D01*
X120927761Y-93432380D01*
X120832523Y-93480000D01*
X120784904Y-93527619D01*
X120737285Y-93622857D01*
X120737285Y-93718095D01*
X120784904Y-93813333D01*
X120832523Y-93860952D01*
X120927761Y-93908571D01*
X121261095Y-93908571D01*
X119737285Y-94432380D02*
X120308714Y-94432380D01*
X120023000Y-94432380D02*
X120023000Y-93432380D01*
X120118238Y-93575238D01*
X120213476Y-93670476D01*
X120308714Y-93718095D01*
X120927761Y-91241571D02*
X120784904Y-91289190D01*
X120737285Y-91336809D01*
X120689666Y-91432047D01*
X120689666Y-91574904D01*
X120737285Y-91670142D01*
X120784904Y-91717761D01*
X120880142Y-91765380D01*
X121261095Y-91765380D01*
X121261095Y-90765380D01*
X120927761Y-90765380D01*
X120832523Y-90813000D01*
X120784904Y-90860619D01*
X120737285Y-90955857D01*
X120737285Y-91051095D01*
X120784904Y-91146333D01*
X120832523Y-91193952D01*
X120927761Y-91241571D01*
X121261095Y-91241571D01*
X120308714Y-90860619D02*
X120261095Y-90813000D01*
X120165857Y-90765380D01*
X119927761Y-90765380D01*
X119832523Y-90813000D01*
X119784904Y-90860619D01*
X119737285Y-90955857D01*
X119737285Y-91051095D01*
X119784904Y-91193952D01*
X120356333Y-91765380D01*
X119737285Y-91765380D01*
X120927761Y-88828571D02*
X120784904Y-88876190D01*
X120737285Y-88923809D01*
X120689666Y-89019047D01*
X120689666Y-89161904D01*
X120737285Y-89257142D01*
X120784904Y-89304761D01*
X120880142Y-89352380D01*
X121261095Y-89352380D01*
X121261095Y-88352380D01*
X120927761Y-88352380D01*
X120832523Y-88400000D01*
X120784904Y-88447619D01*
X120737285Y-88542857D01*
X120737285Y-88638095D01*
X120784904Y-88733333D01*
X120832523Y-88780952D01*
X120927761Y-88828571D01*
X121261095Y-88828571D01*
X120356333Y-88352380D02*
X119737285Y-88352380D01*
X120070619Y-88733333D01*
X119927761Y-88733333D01*
X119832523Y-88780952D01*
X119784904Y-88828571D01*
X119737285Y-88923809D01*
X119737285Y-89161904D01*
X119784904Y-89257142D01*
X119832523Y-89304761D01*
X119927761Y-89352380D01*
X120213476Y-89352380D01*
X120308714Y-89304761D01*
X120356333Y-89257142D01*
X120927761Y-86288571D02*
X120784904Y-86336190D01*
X120737285Y-86383809D01*
X120689666Y-86479047D01*
X120689666Y-86621904D01*
X120737285Y-86717142D01*
X120784904Y-86764761D01*
X120880142Y-86812380D01*
X121261095Y-86812380D01*
X121261095Y-85812380D01*
X120927761Y-85812380D01*
X120832523Y-85860000D01*
X120784904Y-85907619D01*
X120737285Y-86002857D01*
X120737285Y-86098095D01*
X120784904Y-86193333D01*
X120832523Y-86240952D01*
X120927761Y-86288571D01*
X121261095Y-86288571D01*
X119832523Y-86145714D02*
X119832523Y-86812380D01*
X120070619Y-85764761D02*
X120308714Y-86479047D01*
X119689666Y-86479047D01*
X122269095Y-83621571D02*
X121935761Y-83621571D01*
X121792904Y-84145380D02*
X122269095Y-84145380D01*
X122269095Y-83145380D01*
X121792904Y-83145380D01*
X121364333Y-84145380D02*
X121364333Y-83145380D01*
X120792904Y-84145380D01*
X120792904Y-83145380D01*
X119745285Y-84050142D02*
X119792904Y-84097761D01*
X119935761Y-84145380D01*
X120031000Y-84145380D01*
X120173857Y-84097761D01*
X120269095Y-84002523D01*
X120316714Y-83907285D01*
X120364333Y-83716809D01*
X120364333Y-83573952D01*
X120316714Y-83383476D01*
X120269095Y-83288238D01*
X120173857Y-83193000D01*
X120031000Y-83145380D01*
X119935761Y-83145380D01*
X119792904Y-83193000D01*
X119745285Y-83240619D01*
%TD*%
M02*
