%TF.GenerationSoftware,KiCad,Pcbnew,(5.1.10)-1*%
%TF.CreationDate,2021-07-03T16:07:00+02:00*%
%TF.ProjectId,mccake-5.25-inch-bay,6d636361-6b65-42d3-952e-32352d696e63,rev?*%
%TF.SameCoordinates,Original*%
%TF.FileFunction,Legend,Top*%
%TF.FilePolarity,Positive*%
%FSLAX46Y46*%
G04 Gerber Fmt 4.6, Leading zero omitted, Abs format (unit mm)*
G04 Created by KiCad (PCBNEW (5.1.10)-1) date 2021-07-03 16:07:00*
%MOMM*%
%LPD*%
G01*
G04 APERTURE LIST*
%ADD10C,0.150000*%
%ADD11C,0.120000*%
G04 APERTURE END LIST*
D10*
X203153523Y-109434380D02*
X203391619Y-110434380D01*
X203582095Y-109720095D01*
X203772571Y-110434380D01*
X204010666Y-109434380D01*
X204391619Y-110434380D02*
X204391619Y-109434380D01*
X204772571Y-109434380D01*
X204867809Y-109482000D01*
X204915428Y-109529619D01*
X204963047Y-109624857D01*
X204963047Y-109767714D01*
X204915428Y-109862952D01*
X204867809Y-109910571D01*
X204772571Y-109958190D01*
X204391619Y-109958190D01*
X205296380Y-109434380D02*
X205915428Y-109434380D01*
X205582095Y-109815333D01*
X205724952Y-109815333D01*
X205820190Y-109862952D01*
X205867809Y-109910571D01*
X205915428Y-110005809D01*
X205915428Y-110243904D01*
X205867809Y-110339142D01*
X205820190Y-110386761D01*
X205724952Y-110434380D01*
X205439238Y-110434380D01*
X205344000Y-110386761D01*
X205296380Y-110339142D01*
X206296380Y-109529619D02*
X206344000Y-109482000D01*
X206439238Y-109434380D01*
X206677333Y-109434380D01*
X206772571Y-109482000D01*
X206820190Y-109529619D01*
X206867809Y-109624857D01*
X206867809Y-109720095D01*
X206820190Y-109862952D01*
X206248761Y-110434380D01*
X206867809Y-110434380D01*
X208058285Y-110434380D02*
X208058285Y-109434380D01*
X208391619Y-110148666D01*
X208724952Y-109434380D01*
X208724952Y-110434380D01*
X209629714Y-110386761D02*
X209534476Y-110434380D01*
X209344000Y-110434380D01*
X209248761Y-110386761D01*
X209201142Y-110339142D01*
X209153523Y-110243904D01*
X209153523Y-109958190D01*
X209201142Y-109862952D01*
X209248761Y-109815333D01*
X209344000Y-109767714D01*
X209534476Y-109767714D01*
X209629714Y-109815333D01*
X210629714Y-110339142D02*
X210582095Y-110386761D01*
X210439238Y-110434380D01*
X210344000Y-110434380D01*
X210201142Y-110386761D01*
X210105904Y-110291523D01*
X210058285Y-110196285D01*
X210010666Y-110005809D01*
X210010666Y-109862952D01*
X210058285Y-109672476D01*
X210105904Y-109577238D01*
X210201142Y-109482000D01*
X210344000Y-109434380D01*
X210439238Y-109434380D01*
X210582095Y-109482000D01*
X210629714Y-109529619D01*
X211486857Y-110434380D02*
X211486857Y-109910571D01*
X211439238Y-109815333D01*
X211344000Y-109767714D01*
X211153523Y-109767714D01*
X211058285Y-109815333D01*
X211486857Y-110386761D02*
X211391619Y-110434380D01*
X211153523Y-110434380D01*
X211058285Y-110386761D01*
X211010666Y-110291523D01*
X211010666Y-110196285D01*
X211058285Y-110101047D01*
X211153523Y-110053428D01*
X211391619Y-110053428D01*
X211486857Y-110005809D01*
X211963047Y-110434380D02*
X211963047Y-109434380D01*
X212058285Y-110053428D02*
X212344000Y-110434380D01*
X212344000Y-109767714D02*
X211963047Y-110148666D01*
X213153523Y-110386761D02*
X213058285Y-110434380D01*
X212867809Y-110434380D01*
X212772571Y-110386761D01*
X212724952Y-110291523D01*
X212724952Y-109910571D01*
X212772571Y-109815333D01*
X212867809Y-109767714D01*
X213058285Y-109767714D01*
X213153523Y-109815333D01*
X213201142Y-109910571D01*
X213201142Y-110005809D01*
X212724952Y-110101047D01*
X214867809Y-109434380D02*
X214391619Y-109434380D01*
X214344000Y-109910571D01*
X214391619Y-109862952D01*
X214486857Y-109815333D01*
X214724952Y-109815333D01*
X214820190Y-109862952D01*
X214867809Y-109910571D01*
X214915428Y-110005809D01*
X214915428Y-110243904D01*
X214867809Y-110339142D01*
X214820190Y-110386761D01*
X214724952Y-110434380D01*
X214486857Y-110434380D01*
X214391619Y-110386761D01*
X214344000Y-110339142D01*
X215344000Y-110339142D02*
X215391619Y-110386761D01*
X215344000Y-110434380D01*
X215296380Y-110386761D01*
X215344000Y-110339142D01*
X215344000Y-110434380D01*
X215772571Y-109529619D02*
X215820190Y-109482000D01*
X215915428Y-109434380D01*
X216153523Y-109434380D01*
X216248761Y-109482000D01*
X216296380Y-109529619D01*
X216344000Y-109624857D01*
X216344000Y-109720095D01*
X216296380Y-109862952D01*
X215724952Y-110434380D01*
X216344000Y-110434380D01*
X217248761Y-109434380D02*
X216772571Y-109434380D01*
X216724952Y-109910571D01*
X216772571Y-109862952D01*
X216867809Y-109815333D01*
X217105904Y-109815333D01*
X217201142Y-109862952D01*
X217248761Y-109910571D01*
X217296380Y-110005809D01*
X217296380Y-110243904D01*
X217248761Y-110339142D01*
X217201142Y-110386761D01*
X217105904Y-110434380D01*
X216867809Y-110434380D01*
X216772571Y-110386761D01*
X216724952Y-110339142D01*
X217677333Y-109434380D02*
X217677333Y-109624857D01*
X218058285Y-109434380D02*
X218058285Y-109624857D01*
X219582095Y-109910571D02*
X219724952Y-109958190D01*
X219772571Y-110005809D01*
X219820190Y-110101047D01*
X219820190Y-110243904D01*
X219772571Y-110339142D01*
X219724952Y-110386761D01*
X219629714Y-110434380D01*
X219248761Y-110434380D01*
X219248761Y-109434380D01*
X219582095Y-109434380D01*
X219677333Y-109482000D01*
X219724952Y-109529619D01*
X219772571Y-109624857D01*
X219772571Y-109720095D01*
X219724952Y-109815333D01*
X219677333Y-109862952D01*
X219582095Y-109910571D01*
X219248761Y-109910571D01*
X220677333Y-110434380D02*
X220677333Y-109910571D01*
X220629714Y-109815333D01*
X220534476Y-109767714D01*
X220343999Y-109767714D01*
X220248761Y-109815333D01*
X220677333Y-110386761D02*
X220582095Y-110434380D01*
X220343999Y-110434380D01*
X220248761Y-110386761D01*
X220201142Y-110291523D01*
X220201142Y-110196285D01*
X220248761Y-110101047D01*
X220343999Y-110053428D01*
X220582095Y-110053428D01*
X220677333Y-110005809D01*
X221058285Y-109767714D02*
X221296380Y-110434380D01*
X221534476Y-109767714D02*
X221296380Y-110434380D01*
X221201142Y-110672476D01*
X221153523Y-110720095D01*
X221058285Y-110767714D01*
D11*
%TO.C,J2*%
X158750000Y-105791000D02*
X158750000Y-82423000D01*
X123952000Y-105791000D02*
X158750000Y-105791000D01*
X123952000Y-101346000D02*
X158750000Y-101346000D01*
X123952000Y-82423000D02*
X158750000Y-82423000D01*
X123952000Y-82423000D02*
X123952000Y-105791000D01*
X158642748Y-79121000D02*
G75*
G03*
X158642748Y-79121000I-2051748J0D01*
G01*
X128178410Y-79121000D02*
G75*
G03*
X128178410Y-79121000I-2067410J0D01*
G01*
X128158813Y-108839000D02*
G75*
G03*
X128158813Y-108839000I-2047813J0D01*
G01*
X158599046Y-108839000D02*
G75*
G03*
X158599046Y-108839000I-2008046J0D01*
G01*
%TO.C,Switch Synthesizer*%
X195250000Y-97230000D02*
X199750000Y-97230000D01*
X194000000Y-93230000D02*
X194000000Y-94730000D01*
X199750000Y-90730000D02*
X195250000Y-90730000D01*
X201000000Y-94730000D02*
X201000000Y-93230000D01*
%TO.C,Switch ROM*%
X218840000Y-94730000D02*
X218840000Y-93230000D01*
X217590000Y-90730000D02*
X213090000Y-90730000D01*
X211840000Y-93230000D02*
X211840000Y-94730000D01*
X213090000Y-97230000D02*
X217590000Y-97230000D01*
%TO.C,Volume*%
X179410000Y-93980000D02*
G75*
G03*
X179410000Y-93980000I-3000000J0D01*
G01*
X178410000Y-88080000D02*
X182510000Y-88080000D01*
X182510000Y-99880000D02*
X178410000Y-99880000D01*
X174410000Y-99880000D02*
X170310000Y-99880000D01*
X174410000Y-88080000D02*
X170310000Y-88080000D01*
X170310000Y-88080000D02*
X170310000Y-99880000D01*
X168910000Y-90180000D02*
X168610000Y-89880000D01*
X168610000Y-89880000D02*
X169210000Y-89880000D01*
X169210000Y-89880000D02*
X168910000Y-90180000D01*
X182510000Y-88080000D02*
X182510000Y-90480000D01*
X182510000Y-92680000D02*
X182510000Y-95280000D01*
X182510000Y-97480000D02*
X182510000Y-99880000D01*
X176410000Y-93480000D02*
X176410000Y-94480000D01*
X175910000Y-93980000D02*
X176910000Y-93980000D01*
%TO.C,J2*%
D10*
X141144666Y-85050380D02*
X141144666Y-85764666D01*
X141097047Y-85907523D01*
X141001809Y-86002761D01*
X140858952Y-86050380D01*
X140763714Y-86050380D01*
X141573238Y-85145619D02*
X141620857Y-85098000D01*
X141716095Y-85050380D01*
X141954190Y-85050380D01*
X142049428Y-85098000D01*
X142097047Y-85145619D01*
X142144666Y-85240857D01*
X142144666Y-85336095D01*
X142097047Y-85478952D01*
X141525619Y-86050380D01*
X142144666Y-86050380D01*
X131382714Y-88796761D02*
X131525571Y-88844380D01*
X131763666Y-88844380D01*
X131858904Y-88796761D01*
X131906523Y-88749142D01*
X131954142Y-88653904D01*
X131954142Y-88558666D01*
X131906523Y-88463428D01*
X131858904Y-88415809D01*
X131763666Y-88368190D01*
X131573190Y-88320571D01*
X131477952Y-88272952D01*
X131430333Y-88225333D01*
X131382714Y-88130095D01*
X131382714Y-88034857D01*
X131430333Y-87939619D01*
X131477952Y-87892000D01*
X131573190Y-87844380D01*
X131811285Y-87844380D01*
X131954142Y-87892000D01*
X132382714Y-88844380D02*
X132382714Y-87844380D01*
X132382714Y-88320571D02*
X132954142Y-88320571D01*
X132954142Y-88844380D02*
X132954142Y-87844380D01*
X133954142Y-88844380D02*
X133382714Y-88844380D01*
X133668428Y-88844380D02*
X133668428Y-87844380D01*
X133573190Y-87987238D01*
X133477952Y-88082476D01*
X133382714Y-88130095D01*
X134906523Y-88844380D02*
X134335095Y-88844380D01*
X134620809Y-88844380D02*
X134620809Y-87844380D01*
X134525571Y-87987238D01*
X134430333Y-88082476D01*
X134335095Y-88130095D01*
X135525571Y-87844380D02*
X135620809Y-87844380D01*
X135716047Y-87892000D01*
X135763666Y-87939619D01*
X135811285Y-88034857D01*
X135858904Y-88225333D01*
X135858904Y-88463428D01*
X135811285Y-88653904D01*
X135763666Y-88749142D01*
X135716047Y-88796761D01*
X135620809Y-88844380D01*
X135525571Y-88844380D01*
X135430333Y-88796761D01*
X135382714Y-88749142D01*
X135335095Y-88653904D01*
X135287476Y-88463428D01*
X135287476Y-88225333D01*
X135335095Y-88034857D01*
X135382714Y-87939619D01*
X135430333Y-87892000D01*
X135525571Y-87844380D01*
X136716047Y-87844380D02*
X136525571Y-87844380D01*
X136430333Y-87892000D01*
X136382714Y-87939619D01*
X136287476Y-88082476D01*
X136239857Y-88272952D01*
X136239857Y-88653904D01*
X136287476Y-88749142D01*
X136335095Y-88796761D01*
X136430333Y-88844380D01*
X136620809Y-88844380D01*
X136716047Y-88796761D01*
X136763666Y-88749142D01*
X136811285Y-88653904D01*
X136811285Y-88415809D01*
X136763666Y-88320571D01*
X136716047Y-88272952D01*
X136620809Y-88225333D01*
X136430333Y-88225333D01*
X136335095Y-88272952D01*
X136287476Y-88320571D01*
X136239857Y-88415809D01*
X137001761Y-88939619D02*
X137763666Y-88939619D01*
X138001761Y-88844380D02*
X138001761Y-87844380D01*
X138430333Y-87939619D02*
X138477952Y-87892000D01*
X138573190Y-87844380D01*
X138811285Y-87844380D01*
X138906523Y-87892000D01*
X138954142Y-87939619D01*
X139001761Y-88034857D01*
X139001761Y-88130095D01*
X138954142Y-88272952D01*
X138382714Y-88844380D01*
X139001761Y-88844380D01*
X140001761Y-88749142D02*
X139954142Y-88796761D01*
X139811285Y-88844380D01*
X139716047Y-88844380D01*
X139573190Y-88796761D01*
X139477952Y-88701523D01*
X139430333Y-88606285D01*
X139382714Y-88415809D01*
X139382714Y-88272952D01*
X139430333Y-88082476D01*
X139477952Y-87987238D01*
X139573190Y-87892000D01*
X139716047Y-87844380D01*
X139811285Y-87844380D01*
X139954142Y-87892000D01*
X140001761Y-87939619D01*
X140192238Y-88939619D02*
X140954142Y-88939619D01*
X141716047Y-88844380D02*
X141144619Y-88844380D01*
X141430333Y-88844380D02*
X141430333Y-87844380D01*
X141335095Y-87987238D01*
X141239857Y-88082476D01*
X141144619Y-88130095D01*
X142144619Y-88749142D02*
X142192238Y-88796761D01*
X142144619Y-88844380D01*
X142097000Y-88796761D01*
X142144619Y-88749142D01*
X142144619Y-88844380D01*
X142525571Y-87844380D02*
X143144619Y-87844380D01*
X142811285Y-88225333D01*
X142954142Y-88225333D01*
X143049380Y-88272952D01*
X143097000Y-88320571D01*
X143144619Y-88415809D01*
X143144619Y-88653904D01*
X143097000Y-88749142D01*
X143049380Y-88796761D01*
X142954142Y-88844380D01*
X142668428Y-88844380D01*
X142573190Y-88796761D01*
X142525571Y-88749142D01*
X143573190Y-88844380D02*
X143573190Y-88177714D01*
X143573190Y-87844380D02*
X143525571Y-87892000D01*
X143573190Y-87939619D01*
X143620809Y-87892000D01*
X143573190Y-87844380D01*
X143573190Y-87939619D01*
X144049380Y-88177714D02*
X144049380Y-88844380D01*
X144049380Y-88272952D02*
X144097000Y-88225333D01*
X144192238Y-88177714D01*
X144335095Y-88177714D01*
X144430333Y-88225333D01*
X144477952Y-88320571D01*
X144477952Y-88844380D01*
X145382714Y-88796761D02*
X145287476Y-88844380D01*
X145097000Y-88844380D01*
X145001761Y-88796761D01*
X144954142Y-88749142D01*
X144906523Y-88653904D01*
X144906523Y-88368190D01*
X144954142Y-88272952D01*
X145001761Y-88225333D01*
X145097000Y-88177714D01*
X145287476Y-88177714D01*
X145382714Y-88225333D01*
X145811285Y-88844380D02*
X145811285Y-87844380D01*
X146239857Y-88844380D02*
X146239857Y-88320571D01*
X146192238Y-88225333D01*
X146097000Y-88177714D01*
X145954142Y-88177714D01*
X145858904Y-88225333D01*
X145811285Y-88272952D01*
X146477952Y-88939619D02*
X147239857Y-88939619D01*
X147668428Y-87844380D02*
X147858904Y-87844380D01*
X147954142Y-87892000D01*
X148049380Y-87987238D01*
X148097000Y-88177714D01*
X148097000Y-88511047D01*
X148049380Y-88701523D01*
X147954142Y-88796761D01*
X147858904Y-88844380D01*
X147668428Y-88844380D01*
X147573190Y-88796761D01*
X147477952Y-88701523D01*
X147430333Y-88511047D01*
X147430333Y-88177714D01*
X147477952Y-87987238D01*
X147573190Y-87892000D01*
X147668428Y-87844380D01*
X149001761Y-88844380D02*
X148525571Y-88844380D01*
X148525571Y-87844380D01*
X149335095Y-88320571D02*
X149668428Y-88320571D01*
X149811285Y-88844380D02*
X149335095Y-88844380D01*
X149335095Y-87844380D01*
X149811285Y-87844380D01*
X150239857Y-88844380D02*
X150239857Y-87844380D01*
X150477952Y-87844380D01*
X150620809Y-87892000D01*
X150716047Y-87987238D01*
X150763666Y-88082476D01*
X150811285Y-88272952D01*
X150811285Y-88415809D01*
X150763666Y-88606285D01*
X150716047Y-88701523D01*
X150620809Y-88796761D01*
X150477952Y-88844380D01*
X150239857Y-88844380D01*
X145565761Y-83002285D02*
X145613380Y-82859428D01*
X145613380Y-82621333D01*
X145565761Y-82526095D01*
X145518142Y-82478476D01*
X145422904Y-82430857D01*
X145327666Y-82430857D01*
X145232428Y-82478476D01*
X145184809Y-82526095D01*
X145137190Y-82621333D01*
X145089571Y-82811809D01*
X145041952Y-82907047D01*
X144994333Y-82954666D01*
X144899095Y-83002285D01*
X144803857Y-83002285D01*
X144708619Y-82954666D01*
X144661000Y-82907047D01*
X144613380Y-82811809D01*
X144613380Y-82573714D01*
X144661000Y-82430857D01*
X145613380Y-82002285D02*
X144613380Y-82002285D01*
X144613380Y-81764190D01*
X144661000Y-81621333D01*
X144756238Y-81526095D01*
X144851476Y-81478476D01*
X145041952Y-81430857D01*
X145184809Y-81430857D01*
X145375285Y-81478476D01*
X145470523Y-81526095D01*
X145565761Y-81621333D01*
X145613380Y-81764190D01*
X145613380Y-82002285D01*
X145327666Y-81049904D02*
X145327666Y-80573714D01*
X145613380Y-81145142D02*
X144613380Y-80811809D01*
X145613380Y-80478476D01*
X143152761Y-82978476D02*
X143200380Y-82835619D01*
X143200380Y-82597523D01*
X143152761Y-82502285D01*
X143105142Y-82454666D01*
X143009904Y-82407047D01*
X142914666Y-82407047D01*
X142819428Y-82454666D01*
X142771809Y-82502285D01*
X142724190Y-82597523D01*
X142676571Y-82788000D01*
X142628952Y-82883238D01*
X142581333Y-82930857D01*
X142486095Y-82978476D01*
X142390857Y-82978476D01*
X142295619Y-82930857D01*
X142248000Y-82883238D01*
X142200380Y-82788000D01*
X142200380Y-82549904D01*
X142248000Y-82407047D01*
X143105142Y-81407047D02*
X143152761Y-81454666D01*
X143200380Y-81597523D01*
X143200380Y-81692761D01*
X143152761Y-81835619D01*
X143057523Y-81930857D01*
X142962285Y-81978476D01*
X142771809Y-82026095D01*
X142628952Y-82026095D01*
X142438476Y-81978476D01*
X142343238Y-81930857D01*
X142248000Y-81835619D01*
X142200380Y-81692761D01*
X142200380Y-81597523D01*
X142248000Y-81454666D01*
X142295619Y-81407047D01*
X143200380Y-80502285D02*
X143200380Y-80978476D01*
X142200380Y-80978476D01*
X139708000Y-82549904D02*
X139660380Y-82645142D01*
X139660380Y-82788000D01*
X139708000Y-82930857D01*
X139803238Y-83026095D01*
X139898476Y-83073714D01*
X140088952Y-83121333D01*
X140231809Y-83121333D01*
X140422285Y-83073714D01*
X140517523Y-83026095D01*
X140612761Y-82930857D01*
X140660380Y-82788000D01*
X140660380Y-82692761D01*
X140612761Y-82549904D01*
X140565142Y-82502285D01*
X140231809Y-82502285D01*
X140231809Y-82692761D01*
X140660380Y-82073714D02*
X139660380Y-82073714D01*
X140660380Y-81502285D01*
X139660380Y-81502285D01*
X140660380Y-81026095D02*
X139660380Y-81026095D01*
X139660380Y-80788000D01*
X139708000Y-80645142D01*
X139803238Y-80549904D01*
X139898476Y-80502285D01*
X140088952Y-80454666D01*
X140231809Y-80454666D01*
X140422285Y-80502285D01*
X140517523Y-80549904D01*
X140612761Y-80645142D01*
X140660380Y-80788000D01*
X140660380Y-81026095D01*
X137120380Y-83121333D02*
X138120380Y-82788000D01*
X137120380Y-82454666D01*
X138025142Y-81549904D02*
X138072761Y-81597523D01*
X138120380Y-81740380D01*
X138120380Y-81835619D01*
X138072761Y-81978476D01*
X137977523Y-82073714D01*
X137882285Y-82121333D01*
X137691809Y-82168952D01*
X137548952Y-82168952D01*
X137358476Y-82121333D01*
X137263238Y-82073714D01*
X137168000Y-81978476D01*
X137120380Y-81835619D01*
X137120380Y-81740380D01*
X137168000Y-81597523D01*
X137215619Y-81549904D01*
X138025142Y-80549904D02*
X138072761Y-80597523D01*
X138120380Y-80740380D01*
X138120380Y-80835619D01*
X138072761Y-80978476D01*
X137977523Y-81073714D01*
X137882285Y-81121333D01*
X137691809Y-81168952D01*
X137548952Y-81168952D01*
X137358476Y-81121333D01*
X137263238Y-81073714D01*
X137168000Y-80978476D01*
X137120380Y-80835619D01*
X137120380Y-80740380D01*
X137168000Y-80597523D01*
X137215619Y-80549904D01*
%TO.C,Switch Synthesizer*%
X191008857Y-99464761D02*
X191151714Y-99512380D01*
X191389809Y-99512380D01*
X191485047Y-99464761D01*
X191532666Y-99417142D01*
X191580285Y-99321904D01*
X191580285Y-99226666D01*
X191532666Y-99131428D01*
X191485047Y-99083809D01*
X191389809Y-99036190D01*
X191199333Y-98988571D01*
X191104095Y-98940952D01*
X191056476Y-98893333D01*
X191008857Y-98798095D01*
X191008857Y-98702857D01*
X191056476Y-98607619D01*
X191104095Y-98560000D01*
X191199333Y-98512380D01*
X191437428Y-98512380D01*
X191580285Y-98560000D01*
X191913619Y-98845714D02*
X192104095Y-99512380D01*
X192294571Y-99036190D01*
X192485047Y-99512380D01*
X192675523Y-98845714D01*
X193056476Y-99512380D02*
X193056476Y-98845714D01*
X193056476Y-98512380D02*
X193008857Y-98560000D01*
X193056476Y-98607619D01*
X193104095Y-98560000D01*
X193056476Y-98512380D01*
X193056476Y-98607619D01*
X193389809Y-98845714D02*
X193770761Y-98845714D01*
X193532666Y-98512380D02*
X193532666Y-99369523D01*
X193580285Y-99464761D01*
X193675523Y-99512380D01*
X193770761Y-99512380D01*
X194532666Y-99464761D02*
X194437428Y-99512380D01*
X194246952Y-99512380D01*
X194151714Y-99464761D01*
X194104095Y-99417142D01*
X194056476Y-99321904D01*
X194056476Y-99036190D01*
X194104095Y-98940952D01*
X194151714Y-98893333D01*
X194246952Y-98845714D01*
X194437428Y-98845714D01*
X194532666Y-98893333D01*
X194961238Y-99512380D02*
X194961238Y-98512380D01*
X195389809Y-99512380D02*
X195389809Y-98988571D01*
X195342190Y-98893333D01*
X195246952Y-98845714D01*
X195104095Y-98845714D01*
X195008857Y-98893333D01*
X194961238Y-98940952D01*
X196580285Y-99464761D02*
X196723142Y-99512380D01*
X196961238Y-99512380D01*
X197056476Y-99464761D01*
X197104095Y-99417142D01*
X197151714Y-99321904D01*
X197151714Y-99226666D01*
X197104095Y-99131428D01*
X197056476Y-99083809D01*
X196961238Y-99036190D01*
X196770761Y-98988571D01*
X196675523Y-98940952D01*
X196627904Y-98893333D01*
X196580285Y-98798095D01*
X196580285Y-98702857D01*
X196627904Y-98607619D01*
X196675523Y-98560000D01*
X196770761Y-98512380D01*
X197008857Y-98512380D01*
X197151714Y-98560000D01*
X197485047Y-98845714D02*
X197723142Y-99512380D01*
X197961238Y-98845714D02*
X197723142Y-99512380D01*
X197627904Y-99750476D01*
X197580285Y-99798095D01*
X197485047Y-99845714D01*
X198342190Y-98845714D02*
X198342190Y-99512380D01*
X198342190Y-98940952D02*
X198389809Y-98893333D01*
X198485047Y-98845714D01*
X198627904Y-98845714D01*
X198723142Y-98893333D01*
X198770761Y-98988571D01*
X198770761Y-99512380D01*
X199104095Y-98845714D02*
X199485047Y-98845714D01*
X199246952Y-98512380D02*
X199246952Y-99369523D01*
X199294571Y-99464761D01*
X199389809Y-99512380D01*
X199485047Y-99512380D01*
X199818380Y-99512380D02*
X199818380Y-98512380D01*
X200246952Y-99512380D02*
X200246952Y-98988571D01*
X200199333Y-98893333D01*
X200104095Y-98845714D01*
X199961238Y-98845714D01*
X199866000Y-98893333D01*
X199818380Y-98940952D01*
X201104095Y-99464761D02*
X201008857Y-99512380D01*
X200818380Y-99512380D01*
X200723142Y-99464761D01*
X200675523Y-99369523D01*
X200675523Y-98988571D01*
X200723142Y-98893333D01*
X200818380Y-98845714D01*
X201008857Y-98845714D01*
X201104095Y-98893333D01*
X201151714Y-98988571D01*
X201151714Y-99083809D01*
X200675523Y-99179047D01*
X201532666Y-99464761D02*
X201627904Y-99512380D01*
X201818380Y-99512380D01*
X201913619Y-99464761D01*
X201961238Y-99369523D01*
X201961238Y-99321904D01*
X201913619Y-99226666D01*
X201818380Y-99179047D01*
X201675523Y-99179047D01*
X201580285Y-99131428D01*
X201532666Y-99036190D01*
X201532666Y-98988571D01*
X201580285Y-98893333D01*
X201675523Y-98845714D01*
X201818380Y-98845714D01*
X201913619Y-98893333D01*
X202389809Y-99512380D02*
X202389809Y-98845714D01*
X202389809Y-98512380D02*
X202342190Y-98560000D01*
X202389809Y-98607619D01*
X202437428Y-98560000D01*
X202389809Y-98512380D01*
X202389809Y-98607619D01*
X202770761Y-98845714D02*
X203294571Y-98845714D01*
X202770761Y-99512380D01*
X203294571Y-99512380D01*
X204056476Y-99464761D02*
X203961238Y-99512380D01*
X203770761Y-99512380D01*
X203675523Y-99464761D01*
X203627904Y-99369523D01*
X203627904Y-98988571D01*
X203675523Y-98893333D01*
X203770761Y-98845714D01*
X203961238Y-98845714D01*
X204056476Y-98893333D01*
X204104095Y-98988571D01*
X204104095Y-99083809D01*
X203627904Y-99179047D01*
X204532666Y-99512380D02*
X204532666Y-98845714D01*
X204532666Y-99036190D02*
X204580285Y-98940952D01*
X204627904Y-98893333D01*
X204723142Y-98845714D01*
X204818380Y-98845714D01*
%TO.C,Switch ROM*%
X211149523Y-99464761D02*
X211292380Y-99512380D01*
X211530476Y-99512380D01*
X211625714Y-99464761D01*
X211673333Y-99417142D01*
X211720952Y-99321904D01*
X211720952Y-99226666D01*
X211673333Y-99131428D01*
X211625714Y-99083809D01*
X211530476Y-99036190D01*
X211340000Y-98988571D01*
X211244761Y-98940952D01*
X211197142Y-98893333D01*
X211149523Y-98798095D01*
X211149523Y-98702857D01*
X211197142Y-98607619D01*
X211244761Y-98560000D01*
X211340000Y-98512380D01*
X211578095Y-98512380D01*
X211720952Y-98560000D01*
X212054285Y-98845714D02*
X212244761Y-99512380D01*
X212435238Y-99036190D01*
X212625714Y-99512380D01*
X212816190Y-98845714D01*
X213197142Y-99512380D02*
X213197142Y-98845714D01*
X213197142Y-98512380D02*
X213149523Y-98560000D01*
X213197142Y-98607619D01*
X213244761Y-98560000D01*
X213197142Y-98512380D01*
X213197142Y-98607619D01*
X213530476Y-98845714D02*
X213911428Y-98845714D01*
X213673333Y-98512380D02*
X213673333Y-99369523D01*
X213720952Y-99464761D01*
X213816190Y-99512380D01*
X213911428Y-99512380D01*
X214673333Y-99464761D02*
X214578095Y-99512380D01*
X214387619Y-99512380D01*
X214292380Y-99464761D01*
X214244761Y-99417142D01*
X214197142Y-99321904D01*
X214197142Y-99036190D01*
X214244761Y-98940952D01*
X214292380Y-98893333D01*
X214387619Y-98845714D01*
X214578095Y-98845714D01*
X214673333Y-98893333D01*
X215101904Y-99512380D02*
X215101904Y-98512380D01*
X215530476Y-99512380D02*
X215530476Y-98988571D01*
X215482857Y-98893333D01*
X215387619Y-98845714D01*
X215244761Y-98845714D01*
X215149523Y-98893333D01*
X215101904Y-98940952D01*
X217340000Y-99512380D02*
X217006666Y-99036190D01*
X216768571Y-99512380D02*
X216768571Y-98512380D01*
X217149523Y-98512380D01*
X217244761Y-98560000D01*
X217292380Y-98607619D01*
X217340000Y-98702857D01*
X217340000Y-98845714D01*
X217292380Y-98940952D01*
X217244761Y-98988571D01*
X217149523Y-99036190D01*
X216768571Y-99036190D01*
X217959047Y-98512380D02*
X218149523Y-98512380D01*
X218244761Y-98560000D01*
X218340000Y-98655238D01*
X218387619Y-98845714D01*
X218387619Y-99179047D01*
X218340000Y-99369523D01*
X218244761Y-99464761D01*
X218149523Y-99512380D01*
X217959047Y-99512380D01*
X217863809Y-99464761D01*
X217768571Y-99369523D01*
X217720952Y-99179047D01*
X217720952Y-98845714D01*
X217768571Y-98655238D01*
X217863809Y-98560000D01*
X217959047Y-98512380D01*
X218816190Y-99512380D02*
X218816190Y-98512380D01*
X219149523Y-99226666D01*
X219482857Y-98512380D01*
X219482857Y-99512380D01*
%TO.C,Volume*%
X173934761Y-101560380D02*
X174268095Y-102560380D01*
X174601428Y-101560380D01*
X175077619Y-102560380D02*
X174982380Y-102512761D01*
X174934761Y-102465142D01*
X174887142Y-102369904D01*
X174887142Y-102084190D01*
X174934761Y-101988952D01*
X174982380Y-101941333D01*
X175077619Y-101893714D01*
X175220476Y-101893714D01*
X175315714Y-101941333D01*
X175363333Y-101988952D01*
X175410952Y-102084190D01*
X175410952Y-102369904D01*
X175363333Y-102465142D01*
X175315714Y-102512761D01*
X175220476Y-102560380D01*
X175077619Y-102560380D01*
X175982380Y-102560380D02*
X175887142Y-102512761D01*
X175839523Y-102417523D01*
X175839523Y-101560380D01*
X176791904Y-101893714D02*
X176791904Y-102560380D01*
X176363333Y-101893714D02*
X176363333Y-102417523D01*
X176410952Y-102512761D01*
X176506190Y-102560380D01*
X176649047Y-102560380D01*
X176744285Y-102512761D01*
X176791904Y-102465142D01*
X177268095Y-102560380D02*
X177268095Y-101893714D01*
X177268095Y-101988952D02*
X177315714Y-101941333D01*
X177410952Y-101893714D01*
X177553809Y-101893714D01*
X177649047Y-101941333D01*
X177696666Y-102036571D01*
X177696666Y-102560380D01*
X177696666Y-102036571D02*
X177744285Y-101941333D01*
X177839523Y-101893714D01*
X177982380Y-101893714D01*
X178077619Y-101941333D01*
X178125238Y-102036571D01*
X178125238Y-102560380D01*
X178982380Y-102512761D02*
X178887142Y-102560380D01*
X178696666Y-102560380D01*
X178601428Y-102512761D01*
X178553809Y-102417523D01*
X178553809Y-102036571D01*
X178601428Y-101941333D01*
X178696666Y-101893714D01*
X178887142Y-101893714D01*
X178982380Y-101941333D01*
X179030000Y-102036571D01*
X179030000Y-102131809D01*
X178553809Y-102227047D01*
%TD*%
M02*
