%TF.GenerationSoftware,KiCad,Pcbnew,(5.1.10)-1*%
%TF.CreationDate,2021-07-03T16:07:00+02:00*%
%TF.ProjectId,mccake-5.25-inch-bay,6d636361-6b65-42d3-952e-32352d696e63,rev?*%
%TF.SameCoordinates,Original*%
%TF.FileFunction,Copper,L2,Bot*%
%TF.FilePolarity,Positive*%
%FSLAX46Y46*%
G04 Gerber Fmt 4.6, Leading zero omitted, Abs format (unit mm)*
G04 Created by KiCad (PCBNEW (5.1.10)-1) date 2021-07-03 16:07:00*
%MOMM*%
%LPD*%
G01*
G04 APERTURE LIST*
%TA.AperFunction,ComponentPad*%
%ADD10C,1.700000*%
%TD*%
%TA.AperFunction,ComponentPad*%
%ADD11R,1.700000X1.700000*%
%TD*%
%TA.AperFunction,ComponentPad*%
%ADD12O,1.700000X1.700000*%
%TD*%
%TA.AperFunction,ComponentPad*%
%ADD13C,2.000000*%
%TD*%
%TA.AperFunction,ComponentPad*%
%ADD14R,3.200000X2.000000*%
%TD*%
%TA.AperFunction,ComponentPad*%
%ADD15R,2.000000X2.000000*%
%TD*%
%TA.AperFunction,Conductor*%
%ADD16C,0.250000*%
%TD*%
%TA.AperFunction,Conductor*%
%ADD17C,0.254000*%
%TD*%
%TA.AperFunction,Conductor*%
%ADD18C,0.100000*%
%TD*%
G04 APERTURE END LIST*
D10*
%TO.P,J2,SDA*%
%TO.N,/SDA*%
X145288000Y-79375000D03*
%TO.P,J2,SCL*%
%TO.N,/SCL*%
X142748000Y-79375000D03*
%TO.P,J2,GND*%
%TO.N,GND*%
X140208000Y-79375000D03*
D11*
%TO.P,J2,VCC*%
%TO.N,+3V3*%
X137668000Y-79375000D03*
%TD*%
D12*
%TO.P,J1,ENC*%
%TO.N,/ENC_SW*%
X118110000Y-83820000D03*
%TO.P,J1,B4*%
%TO.N,/B4_DAT*%
X118110000Y-86360000D03*
%TO.P,J1,B3*%
%TO.N,/B3_CLK*%
X118110000Y-88900000D03*
%TO.P,J1,B2*%
%TO.N,/B2*%
X118110000Y-91440000D03*
%TO.P,J1,B1*%
%TO.N,/B1*%
X118110000Y-93980000D03*
%TO.P,J1,GND*%
%TO.N,GND*%
X118110000Y-96520000D03*
%TO.P,J1,3.3V*%
%TO.N,+3V3*%
X118110000Y-99060000D03*
%TO.P,J1,SCL*%
%TO.N,/SCL*%
X118110000Y-101600000D03*
D11*
%TO.P,J1,SDA*%
%TO.N,/SDA*%
X118110000Y-104140000D03*
%TD*%
D13*
%TO.P,Switch Synthesizer,2*%
%TO.N,GND*%
X194250000Y-96230000D03*
%TO.P,Switch Synthesizer,1*%
%TO.N,/B1*%
X194250000Y-91730000D03*
%TO.P,Switch Synthesizer,2*%
%TO.N,GND*%
X200750000Y-96230000D03*
%TO.P,Switch Synthesizer,1*%
%TO.N,/B1*%
X200750000Y-91730000D03*
%TD*%
%TO.P,Switch ROM,1*%
%TO.N,/B2*%
X218590000Y-91730000D03*
%TO.P,Switch ROM,2*%
%TO.N,GND*%
X218590000Y-96230000D03*
%TO.P,Switch ROM,1*%
%TO.N,/B2*%
X212090000Y-91730000D03*
%TO.P,Switch ROM,2*%
%TO.N,GND*%
X212090000Y-96230000D03*
%TD*%
%TO.P,Volume,S1*%
%TO.N,GND*%
X183410000Y-96480000D03*
%TO.P,Volume,S2*%
%TO.N,/ENC_SW*%
X183410000Y-91480000D03*
D14*
%TO.P,Volume,MP*%
%TO.N,N/C*%
X176410000Y-99580000D03*
X176410000Y-88380000D03*
D13*
%TO.P,Volume,B*%
%TO.N,/B3_CLK*%
X168910000Y-96480000D03*
%TO.P,Volume,C*%
%TO.N,GND*%
X168910000Y-93980000D03*
D15*
%TO.P,Volume,A*%
%TO.N,/B4_DAT*%
X168910000Y-91480000D03*
%TD*%
D16*
%TO.N,/B3_CLK*%
X118110000Y-89700998D02*
X118110000Y-88900000D01*
X124889002Y-96480000D02*
X118110000Y-89700998D01*
X168910000Y-96480000D02*
X124889002Y-96480000D01*
%TO.N,/B4_DAT*%
X123230000Y-91480000D02*
X118110000Y-86360000D01*
X168910000Y-91480000D02*
X123230000Y-91480000D01*
%TO.N,/B1*%
X200750000Y-91730000D02*
X194250000Y-91730000D01*
X122174000Y-98044000D02*
X118110000Y-93980000D01*
X179884998Y-98044000D02*
X122174000Y-98044000D01*
X186198998Y-91730000D02*
X179884998Y-98044000D01*
X194250000Y-91730000D02*
X186198998Y-91730000D01*
%TO.N,/B2*%
X218590000Y-91730000D02*
X212090000Y-91730000D01*
X203004999Y-82644999D02*
X212090000Y-91730000D01*
X117545999Y-82644999D02*
X203004999Y-82644999D01*
X114650010Y-85540988D02*
X117545999Y-82644999D01*
X114650010Y-87980010D02*
X114650010Y-85540988D01*
X118110000Y-91440000D02*
X114650010Y-87980010D01*
%TO.N,/ENC_SW*%
X168664998Y-83820000D02*
X118110000Y-83820000D01*
X176324998Y-91480000D02*
X168664998Y-83820000D01*
X183410000Y-91480000D02*
X176324998Y-91480000D01*
%TD*%
D17*
%TO.N,GND*%
X226670000Y-111100000D02*
X114960000Y-111100000D01*
X114960000Y-108516495D01*
X115363000Y-108516495D01*
X115363000Y-108907505D01*
X115439282Y-109291003D01*
X115588915Y-109652250D01*
X115806149Y-109977364D01*
X116082636Y-110253851D01*
X116407750Y-110471085D01*
X116768997Y-110620718D01*
X117152495Y-110697000D01*
X117543505Y-110697000D01*
X117927003Y-110620718D01*
X118288250Y-110471085D01*
X118613364Y-110253851D01*
X118889851Y-109977364D01*
X119107085Y-109652250D01*
X119256718Y-109291003D01*
X119333000Y-108907505D01*
X119333000Y-108516495D01*
X222551000Y-108516495D01*
X222551000Y-108907505D01*
X222627282Y-109291003D01*
X222776915Y-109652250D01*
X222994149Y-109977364D01*
X223270636Y-110253851D01*
X223595750Y-110471085D01*
X223956997Y-110620718D01*
X224340495Y-110697000D01*
X224731505Y-110697000D01*
X225115003Y-110620718D01*
X225476250Y-110471085D01*
X225801364Y-110253851D01*
X226077851Y-109977364D01*
X226295085Y-109652250D01*
X226444718Y-109291003D01*
X226521000Y-108907505D01*
X226521000Y-108516495D01*
X226444718Y-108132997D01*
X226295085Y-107771750D01*
X226077851Y-107446636D01*
X225801364Y-107170149D01*
X225476250Y-106952915D01*
X225115003Y-106803282D01*
X224731505Y-106727000D01*
X224340495Y-106727000D01*
X223956997Y-106803282D01*
X223595750Y-106952915D01*
X223270636Y-107170149D01*
X222994149Y-107446636D01*
X222776915Y-107771750D01*
X222627282Y-108132997D01*
X222551000Y-108516495D01*
X119333000Y-108516495D01*
X119256718Y-108132997D01*
X119107085Y-107771750D01*
X118889851Y-107446636D01*
X118613364Y-107170149D01*
X118288250Y-106952915D01*
X117927003Y-106803282D01*
X117543505Y-106727000D01*
X117152495Y-106727000D01*
X116768997Y-106803282D01*
X116407750Y-106952915D01*
X116082636Y-107170149D01*
X115806149Y-107446636D01*
X115588915Y-107771750D01*
X115439282Y-108132997D01*
X115363000Y-108516495D01*
X114960000Y-108516495D01*
X114960000Y-89364801D01*
X116668790Y-91073592D01*
X116625000Y-91293740D01*
X116625000Y-91586260D01*
X116682068Y-91873158D01*
X116794010Y-92143411D01*
X116956525Y-92386632D01*
X117163368Y-92593475D01*
X117337760Y-92710000D01*
X117163368Y-92826525D01*
X116956525Y-93033368D01*
X116794010Y-93276589D01*
X116682068Y-93546842D01*
X116625000Y-93833740D01*
X116625000Y-94126260D01*
X116682068Y-94413158D01*
X116794010Y-94683411D01*
X116956525Y-94926632D01*
X117163368Y-95133475D01*
X117345534Y-95255195D01*
X117228645Y-95324822D01*
X117012412Y-95519731D01*
X116838359Y-95753080D01*
X116713175Y-96015901D01*
X116668524Y-96163110D01*
X116789845Y-96393000D01*
X117983000Y-96393000D01*
X117983000Y-96373000D01*
X118237000Y-96373000D01*
X118237000Y-96393000D01*
X118257000Y-96393000D01*
X118257000Y-96647000D01*
X118237000Y-96647000D01*
X118237000Y-96667000D01*
X117983000Y-96667000D01*
X117983000Y-96647000D01*
X116789845Y-96647000D01*
X116668524Y-96876890D01*
X116713175Y-97024099D01*
X116838359Y-97286920D01*
X117012412Y-97520269D01*
X117228645Y-97715178D01*
X117345534Y-97784805D01*
X117163368Y-97906525D01*
X116956525Y-98113368D01*
X116794010Y-98356589D01*
X116682068Y-98626842D01*
X116625000Y-98913740D01*
X116625000Y-99206260D01*
X116682068Y-99493158D01*
X116794010Y-99763411D01*
X116956525Y-100006632D01*
X117163368Y-100213475D01*
X117337760Y-100330000D01*
X117163368Y-100446525D01*
X116956525Y-100653368D01*
X116794010Y-100896589D01*
X116682068Y-101166842D01*
X116625000Y-101453740D01*
X116625000Y-101746260D01*
X116682068Y-102033158D01*
X116794010Y-102303411D01*
X116956525Y-102546632D01*
X117088380Y-102678487D01*
X117015820Y-102700498D01*
X116905506Y-102759463D01*
X116808815Y-102838815D01*
X116729463Y-102935506D01*
X116670498Y-103045820D01*
X116634188Y-103165518D01*
X116621928Y-103290000D01*
X116621928Y-104990000D01*
X116634188Y-105114482D01*
X116670498Y-105234180D01*
X116729463Y-105344494D01*
X116808815Y-105441185D01*
X116905506Y-105520537D01*
X117015820Y-105579502D01*
X117135518Y-105615812D01*
X117260000Y-105628072D01*
X118960000Y-105628072D01*
X119084482Y-105615812D01*
X119204180Y-105579502D01*
X119314494Y-105520537D01*
X119411185Y-105441185D01*
X119490537Y-105344494D01*
X119549502Y-105234180D01*
X119585812Y-105114482D01*
X119598072Y-104990000D01*
X119598072Y-103290000D01*
X119585812Y-103165518D01*
X119549502Y-103045820D01*
X119490537Y-102935506D01*
X119411185Y-102838815D01*
X119314494Y-102759463D01*
X119204180Y-102700498D01*
X119131620Y-102678487D01*
X119263475Y-102546632D01*
X119425990Y-102303411D01*
X119537932Y-102033158D01*
X119595000Y-101746260D01*
X119595000Y-101453740D01*
X119537932Y-101166842D01*
X119425990Y-100896589D01*
X119263475Y-100653368D01*
X119056632Y-100446525D01*
X118882240Y-100330000D01*
X119056632Y-100213475D01*
X119263475Y-100006632D01*
X119425990Y-99763411D01*
X119537932Y-99493158D01*
X119595000Y-99206260D01*
X119595000Y-98913740D01*
X119537932Y-98626842D01*
X119425990Y-98356589D01*
X119263475Y-98113368D01*
X119056632Y-97906525D01*
X118874466Y-97784805D01*
X118991355Y-97715178D01*
X119207588Y-97520269D01*
X119381641Y-97286920D01*
X119506825Y-97024099D01*
X119551476Y-96876890D01*
X119430156Y-96647002D01*
X119595000Y-96647002D01*
X119595000Y-96539801D01*
X121610201Y-98555003D01*
X121633999Y-98584001D01*
X121662997Y-98607799D01*
X121749723Y-98678974D01*
X121881753Y-98749546D01*
X122025014Y-98793003D01*
X122136667Y-98804000D01*
X122136677Y-98804000D01*
X122174000Y-98807676D01*
X122211323Y-98804000D01*
X174171928Y-98804000D01*
X174171928Y-100580000D01*
X174184188Y-100704482D01*
X174220498Y-100824180D01*
X174279463Y-100934494D01*
X174358815Y-101031185D01*
X174455506Y-101110537D01*
X174565820Y-101169502D01*
X174685518Y-101205812D01*
X174810000Y-101218072D01*
X178010000Y-101218072D01*
X178134482Y-101205812D01*
X178254180Y-101169502D01*
X178364494Y-101110537D01*
X178461185Y-101031185D01*
X178540537Y-100934494D01*
X178599502Y-100824180D01*
X178635812Y-100704482D01*
X178648072Y-100580000D01*
X178648072Y-98804000D01*
X179847676Y-98804000D01*
X179884998Y-98807676D01*
X179922320Y-98804000D01*
X179922331Y-98804000D01*
X180033984Y-98793003D01*
X180177245Y-98749546D01*
X180309274Y-98678974D01*
X180424999Y-98584001D01*
X180448802Y-98554997D01*
X181388386Y-97615413D01*
X182454192Y-97615413D01*
X182549956Y-97879814D01*
X182839571Y-98020704D01*
X183151108Y-98102384D01*
X183472595Y-98121718D01*
X183791675Y-98077961D01*
X184096088Y-97972795D01*
X184270044Y-97879814D01*
X184365808Y-97615413D01*
X183410000Y-96659605D01*
X182454192Y-97615413D01*
X181388386Y-97615413D01*
X181896794Y-97107006D01*
X181917205Y-97166088D01*
X182010186Y-97340044D01*
X182274587Y-97435808D01*
X183230395Y-96480000D01*
X183589605Y-96480000D01*
X184545413Y-97435808D01*
X184739771Y-97365413D01*
X193294192Y-97365413D01*
X193389956Y-97629814D01*
X193679571Y-97770704D01*
X193991108Y-97852384D01*
X194312595Y-97871718D01*
X194631675Y-97827961D01*
X194936088Y-97722795D01*
X195110044Y-97629814D01*
X195205808Y-97365413D01*
X199794192Y-97365413D01*
X199889956Y-97629814D01*
X200179571Y-97770704D01*
X200491108Y-97852384D01*
X200812595Y-97871718D01*
X201131675Y-97827961D01*
X201436088Y-97722795D01*
X201610044Y-97629814D01*
X201705808Y-97365413D01*
X211134192Y-97365413D01*
X211229956Y-97629814D01*
X211519571Y-97770704D01*
X211831108Y-97852384D01*
X212152595Y-97871718D01*
X212471675Y-97827961D01*
X212776088Y-97722795D01*
X212950044Y-97629814D01*
X213045808Y-97365413D01*
X217634192Y-97365413D01*
X217729956Y-97629814D01*
X218019571Y-97770704D01*
X218331108Y-97852384D01*
X218652595Y-97871718D01*
X218971675Y-97827961D01*
X219276088Y-97722795D01*
X219450044Y-97629814D01*
X219545808Y-97365413D01*
X218590000Y-96409605D01*
X217634192Y-97365413D01*
X213045808Y-97365413D01*
X212090000Y-96409605D01*
X211134192Y-97365413D01*
X201705808Y-97365413D01*
X200750000Y-96409605D01*
X199794192Y-97365413D01*
X195205808Y-97365413D01*
X194250000Y-96409605D01*
X193294192Y-97365413D01*
X184739771Y-97365413D01*
X184809814Y-97340044D01*
X184950704Y-97050429D01*
X185032384Y-96738892D01*
X185051718Y-96417405D01*
X185034603Y-96292595D01*
X192608282Y-96292595D01*
X192652039Y-96611675D01*
X192757205Y-96916088D01*
X192850186Y-97090044D01*
X193114587Y-97185808D01*
X194070395Y-96230000D01*
X194429605Y-96230000D01*
X195385413Y-97185808D01*
X195649814Y-97090044D01*
X195790704Y-96800429D01*
X195872384Y-96488892D01*
X195884189Y-96292595D01*
X199108282Y-96292595D01*
X199152039Y-96611675D01*
X199257205Y-96916088D01*
X199350186Y-97090044D01*
X199614587Y-97185808D01*
X200570395Y-96230000D01*
X200929605Y-96230000D01*
X201885413Y-97185808D01*
X202149814Y-97090044D01*
X202290704Y-96800429D01*
X202372384Y-96488892D01*
X202384189Y-96292595D01*
X210448282Y-96292595D01*
X210492039Y-96611675D01*
X210597205Y-96916088D01*
X210690186Y-97090044D01*
X210954587Y-97185808D01*
X211910395Y-96230000D01*
X212269605Y-96230000D01*
X213225413Y-97185808D01*
X213489814Y-97090044D01*
X213630704Y-96800429D01*
X213712384Y-96488892D01*
X213724189Y-96292595D01*
X216948282Y-96292595D01*
X216992039Y-96611675D01*
X217097205Y-96916088D01*
X217190186Y-97090044D01*
X217454587Y-97185808D01*
X218410395Y-96230000D01*
X218769605Y-96230000D01*
X219725413Y-97185808D01*
X219989814Y-97090044D01*
X220130704Y-96800429D01*
X220212384Y-96488892D01*
X220231718Y-96167405D01*
X220187961Y-95848325D01*
X220082795Y-95543912D01*
X219989814Y-95369956D01*
X219725413Y-95274192D01*
X218769605Y-96230000D01*
X218410395Y-96230000D01*
X217454587Y-95274192D01*
X217190186Y-95369956D01*
X217049296Y-95659571D01*
X216967616Y-95971108D01*
X216948282Y-96292595D01*
X213724189Y-96292595D01*
X213731718Y-96167405D01*
X213687961Y-95848325D01*
X213582795Y-95543912D01*
X213489814Y-95369956D01*
X213225413Y-95274192D01*
X212269605Y-96230000D01*
X211910395Y-96230000D01*
X210954587Y-95274192D01*
X210690186Y-95369956D01*
X210549296Y-95659571D01*
X210467616Y-95971108D01*
X210448282Y-96292595D01*
X202384189Y-96292595D01*
X202391718Y-96167405D01*
X202347961Y-95848325D01*
X202242795Y-95543912D01*
X202149814Y-95369956D01*
X201885413Y-95274192D01*
X200929605Y-96230000D01*
X200570395Y-96230000D01*
X199614587Y-95274192D01*
X199350186Y-95369956D01*
X199209296Y-95659571D01*
X199127616Y-95971108D01*
X199108282Y-96292595D01*
X195884189Y-96292595D01*
X195891718Y-96167405D01*
X195847961Y-95848325D01*
X195742795Y-95543912D01*
X195649814Y-95369956D01*
X195385413Y-95274192D01*
X194429605Y-96230000D01*
X194070395Y-96230000D01*
X193114587Y-95274192D01*
X192850186Y-95369956D01*
X192709296Y-95659571D01*
X192627616Y-95971108D01*
X192608282Y-96292595D01*
X185034603Y-96292595D01*
X185007961Y-96098325D01*
X184902795Y-95793912D01*
X184809814Y-95619956D01*
X184545413Y-95524192D01*
X183589605Y-96480000D01*
X183230395Y-96480000D01*
X183216253Y-96465858D01*
X183395858Y-96286253D01*
X183410000Y-96300395D01*
X184365808Y-95344587D01*
X184275260Y-95094587D01*
X193294192Y-95094587D01*
X194250000Y-96050395D01*
X195205808Y-95094587D01*
X199794192Y-95094587D01*
X200750000Y-96050395D01*
X201705808Y-95094587D01*
X211134192Y-95094587D01*
X212090000Y-96050395D01*
X213045808Y-95094587D01*
X217634192Y-95094587D01*
X218590000Y-96050395D01*
X219545808Y-95094587D01*
X219450044Y-94830186D01*
X219160429Y-94689296D01*
X218848892Y-94607616D01*
X218527405Y-94588282D01*
X218208325Y-94632039D01*
X217903912Y-94737205D01*
X217729956Y-94830186D01*
X217634192Y-95094587D01*
X213045808Y-95094587D01*
X212950044Y-94830186D01*
X212660429Y-94689296D01*
X212348892Y-94607616D01*
X212027405Y-94588282D01*
X211708325Y-94632039D01*
X211403912Y-94737205D01*
X211229956Y-94830186D01*
X211134192Y-95094587D01*
X201705808Y-95094587D01*
X201610044Y-94830186D01*
X201320429Y-94689296D01*
X201008892Y-94607616D01*
X200687405Y-94588282D01*
X200368325Y-94632039D01*
X200063912Y-94737205D01*
X199889956Y-94830186D01*
X199794192Y-95094587D01*
X195205808Y-95094587D01*
X195110044Y-94830186D01*
X194820429Y-94689296D01*
X194508892Y-94607616D01*
X194187405Y-94588282D01*
X193868325Y-94632039D01*
X193563912Y-94737205D01*
X193389956Y-94830186D01*
X193294192Y-95094587D01*
X184275260Y-95094587D01*
X184270044Y-95080186D01*
X184036989Y-94966811D01*
X186513801Y-92490000D01*
X192795091Y-92490000D01*
X192801082Y-92504463D01*
X192980013Y-92772252D01*
X193207748Y-92999987D01*
X193475537Y-93178918D01*
X193773088Y-93302168D01*
X194088967Y-93365000D01*
X194411033Y-93365000D01*
X194726912Y-93302168D01*
X195024463Y-93178918D01*
X195292252Y-92999987D01*
X195519987Y-92772252D01*
X195698918Y-92504463D01*
X195704909Y-92490000D01*
X199295091Y-92490000D01*
X199301082Y-92504463D01*
X199480013Y-92772252D01*
X199707748Y-92999987D01*
X199975537Y-93178918D01*
X200273088Y-93302168D01*
X200588967Y-93365000D01*
X200911033Y-93365000D01*
X201226912Y-93302168D01*
X201524463Y-93178918D01*
X201792252Y-92999987D01*
X202019987Y-92772252D01*
X202198918Y-92504463D01*
X202322168Y-92206912D01*
X202385000Y-91891033D01*
X202385000Y-91568967D01*
X202322168Y-91253088D01*
X202198918Y-90955537D01*
X202019987Y-90687748D01*
X201792252Y-90460013D01*
X201524463Y-90281082D01*
X201226912Y-90157832D01*
X200911033Y-90095000D01*
X200588967Y-90095000D01*
X200273088Y-90157832D01*
X199975537Y-90281082D01*
X199707748Y-90460013D01*
X199480013Y-90687748D01*
X199301082Y-90955537D01*
X199295091Y-90970000D01*
X195704909Y-90970000D01*
X195698918Y-90955537D01*
X195519987Y-90687748D01*
X195292252Y-90460013D01*
X195024463Y-90281082D01*
X194726912Y-90157832D01*
X194411033Y-90095000D01*
X194088967Y-90095000D01*
X193773088Y-90157832D01*
X193475537Y-90281082D01*
X193207748Y-90460013D01*
X192980013Y-90687748D01*
X192801082Y-90955537D01*
X192795091Y-90970000D01*
X186236320Y-90970000D01*
X186198997Y-90966324D01*
X186161674Y-90970000D01*
X186161665Y-90970000D01*
X186050012Y-90980997D01*
X185906751Y-91024454D01*
X185774722Y-91095026D01*
X185774720Y-91095027D01*
X185774721Y-91095027D01*
X185687994Y-91166201D01*
X185687990Y-91166205D01*
X185658997Y-91189999D01*
X185635203Y-91218992D01*
X185003245Y-91850950D01*
X185045000Y-91641033D01*
X185045000Y-91318967D01*
X184982168Y-91003088D01*
X184858918Y-90705537D01*
X184679987Y-90437748D01*
X184452252Y-90210013D01*
X184184463Y-90031082D01*
X183886912Y-89907832D01*
X183571033Y-89845000D01*
X183248967Y-89845000D01*
X182933088Y-89907832D01*
X182635537Y-90031082D01*
X182367748Y-90210013D01*
X182140013Y-90437748D01*
X181961082Y-90705537D01*
X181955091Y-90720000D01*
X176639800Y-90720000D01*
X175937872Y-90018072D01*
X178010000Y-90018072D01*
X178134482Y-90005812D01*
X178254180Y-89969502D01*
X178364494Y-89910537D01*
X178461185Y-89831185D01*
X178540537Y-89734494D01*
X178599502Y-89624180D01*
X178635812Y-89504482D01*
X178648072Y-89380000D01*
X178648072Y-87380000D01*
X178635812Y-87255518D01*
X178599502Y-87135820D01*
X178540537Y-87025506D01*
X178461185Y-86928815D01*
X178364494Y-86849463D01*
X178254180Y-86790498D01*
X178134482Y-86754188D01*
X178010000Y-86741928D01*
X174810000Y-86741928D01*
X174685518Y-86754188D01*
X174565820Y-86790498D01*
X174455506Y-86849463D01*
X174358815Y-86928815D01*
X174279463Y-87025506D01*
X174220498Y-87135820D01*
X174184188Y-87255518D01*
X174171928Y-87380000D01*
X174171928Y-88252128D01*
X169324798Y-83404999D01*
X202690198Y-83404999D01*
X210523823Y-91238625D01*
X210517832Y-91253088D01*
X210455000Y-91568967D01*
X210455000Y-91891033D01*
X210517832Y-92206912D01*
X210641082Y-92504463D01*
X210820013Y-92772252D01*
X211047748Y-92999987D01*
X211315537Y-93178918D01*
X211613088Y-93302168D01*
X211928967Y-93365000D01*
X212251033Y-93365000D01*
X212566912Y-93302168D01*
X212864463Y-93178918D01*
X213132252Y-92999987D01*
X213359987Y-92772252D01*
X213538918Y-92504463D01*
X213544909Y-92490000D01*
X217135091Y-92490000D01*
X217141082Y-92504463D01*
X217320013Y-92772252D01*
X217547748Y-92999987D01*
X217815537Y-93178918D01*
X218113088Y-93302168D01*
X218428967Y-93365000D01*
X218751033Y-93365000D01*
X219066912Y-93302168D01*
X219364463Y-93178918D01*
X219632252Y-92999987D01*
X219859987Y-92772252D01*
X220038918Y-92504463D01*
X220162168Y-92206912D01*
X220225000Y-91891033D01*
X220225000Y-91568967D01*
X220162168Y-91253088D01*
X220038918Y-90955537D01*
X219859987Y-90687748D01*
X219632252Y-90460013D01*
X219364463Y-90281082D01*
X219066912Y-90157832D01*
X218751033Y-90095000D01*
X218428967Y-90095000D01*
X218113088Y-90157832D01*
X217815537Y-90281082D01*
X217547748Y-90460013D01*
X217320013Y-90687748D01*
X217141082Y-90955537D01*
X217135091Y-90970000D01*
X213544909Y-90970000D01*
X213538918Y-90955537D01*
X213359987Y-90687748D01*
X213132252Y-90460013D01*
X212864463Y-90281082D01*
X212566912Y-90157832D01*
X212251033Y-90095000D01*
X211928967Y-90095000D01*
X211613088Y-90157832D01*
X211598625Y-90163823D01*
X203568803Y-82134002D01*
X203545000Y-82104998D01*
X203429275Y-82010025D01*
X203297246Y-81939453D01*
X203153985Y-81895996D01*
X203042332Y-81884999D01*
X203042321Y-81884999D01*
X203004999Y-81881323D01*
X202967677Y-81884999D01*
X117583322Y-81884999D01*
X117545999Y-81881323D01*
X117508676Y-81884999D01*
X117508666Y-81884999D01*
X117397013Y-81895996D01*
X117253752Y-81939453D01*
X117121722Y-82010025D01*
X117038082Y-82078667D01*
X117005998Y-82104998D01*
X116982200Y-82133996D01*
X114960000Y-84156197D01*
X114960000Y-79052495D01*
X115363000Y-79052495D01*
X115363000Y-79443505D01*
X115439282Y-79827003D01*
X115588915Y-80188250D01*
X115806149Y-80513364D01*
X116082636Y-80789851D01*
X116407750Y-81007085D01*
X116768997Y-81156718D01*
X117152495Y-81233000D01*
X117543505Y-81233000D01*
X117927003Y-81156718D01*
X118288250Y-81007085D01*
X118613364Y-80789851D01*
X118889851Y-80513364D01*
X119107085Y-80188250D01*
X119256718Y-79827003D01*
X119333000Y-79443505D01*
X119333000Y-79052495D01*
X119256718Y-78668997D01*
X119197073Y-78525000D01*
X136179928Y-78525000D01*
X136179928Y-80225000D01*
X136192188Y-80349482D01*
X136228498Y-80469180D01*
X136287463Y-80579494D01*
X136366815Y-80676185D01*
X136463506Y-80755537D01*
X136573820Y-80814502D01*
X136693518Y-80850812D01*
X136818000Y-80863072D01*
X138518000Y-80863072D01*
X138642482Y-80850812D01*
X138762180Y-80814502D01*
X138872494Y-80755537D01*
X138969185Y-80676185D01*
X139048537Y-80579494D01*
X139107502Y-80469180D01*
X139127457Y-80403397D01*
X139359208Y-80403397D01*
X139436843Y-80652472D01*
X139700883Y-80778371D01*
X139984411Y-80850339D01*
X140276531Y-80865611D01*
X140566019Y-80823599D01*
X140841747Y-80725919D01*
X140979157Y-80652472D01*
X141056792Y-80403397D01*
X140208000Y-79554605D01*
X139359208Y-80403397D01*
X139127457Y-80403397D01*
X139143812Y-80349482D01*
X139156072Y-80225000D01*
X139156072Y-80216458D01*
X139179603Y-80223792D01*
X140028395Y-79375000D01*
X140387605Y-79375000D01*
X141236397Y-80223792D01*
X141478689Y-80148271D01*
X141594525Y-80321632D01*
X141801368Y-80528475D01*
X142044589Y-80690990D01*
X142314842Y-80802932D01*
X142601740Y-80860000D01*
X142894260Y-80860000D01*
X143181158Y-80802932D01*
X143451411Y-80690990D01*
X143694632Y-80528475D01*
X143901475Y-80321632D01*
X144018000Y-80147240D01*
X144134525Y-80321632D01*
X144341368Y-80528475D01*
X144584589Y-80690990D01*
X144854842Y-80802932D01*
X145141740Y-80860000D01*
X145434260Y-80860000D01*
X145721158Y-80802932D01*
X145991411Y-80690990D01*
X146234632Y-80528475D01*
X146441475Y-80321632D01*
X146603990Y-80078411D01*
X146715932Y-79808158D01*
X146773000Y-79521260D01*
X146773000Y-79228740D01*
X146737943Y-79052495D01*
X222297000Y-79052495D01*
X222297000Y-79443505D01*
X222373282Y-79827003D01*
X222522915Y-80188250D01*
X222740149Y-80513364D01*
X223016636Y-80789851D01*
X223341750Y-81007085D01*
X223702997Y-81156718D01*
X224086495Y-81233000D01*
X224477505Y-81233000D01*
X224861003Y-81156718D01*
X225222250Y-81007085D01*
X225547364Y-80789851D01*
X225823851Y-80513364D01*
X226041085Y-80188250D01*
X226190718Y-79827003D01*
X226267000Y-79443505D01*
X226267000Y-79052495D01*
X226190718Y-78668997D01*
X226041085Y-78307750D01*
X225823851Y-77982636D01*
X225547364Y-77706149D01*
X225222250Y-77488915D01*
X224861003Y-77339282D01*
X224477505Y-77263000D01*
X224086495Y-77263000D01*
X223702997Y-77339282D01*
X223341750Y-77488915D01*
X223016636Y-77706149D01*
X222740149Y-77982636D01*
X222522915Y-78307750D01*
X222373282Y-78668997D01*
X222297000Y-79052495D01*
X146737943Y-79052495D01*
X146715932Y-78941842D01*
X146603990Y-78671589D01*
X146441475Y-78428368D01*
X146234632Y-78221525D01*
X145991411Y-78059010D01*
X145721158Y-77947068D01*
X145434260Y-77890000D01*
X145141740Y-77890000D01*
X144854842Y-77947068D01*
X144584589Y-78059010D01*
X144341368Y-78221525D01*
X144134525Y-78428368D01*
X144018000Y-78602760D01*
X143901475Y-78428368D01*
X143694632Y-78221525D01*
X143451411Y-78059010D01*
X143181158Y-77947068D01*
X142894260Y-77890000D01*
X142601740Y-77890000D01*
X142314842Y-77947068D01*
X142044589Y-78059010D01*
X141801368Y-78221525D01*
X141594525Y-78428368D01*
X141478689Y-78601729D01*
X141236397Y-78526208D01*
X140387605Y-79375000D01*
X140028395Y-79375000D01*
X139179603Y-78526208D01*
X139156072Y-78533542D01*
X139156072Y-78525000D01*
X139143812Y-78400518D01*
X139127458Y-78346603D01*
X139359208Y-78346603D01*
X140208000Y-79195395D01*
X141056792Y-78346603D01*
X140979157Y-78097528D01*
X140715117Y-77971629D01*
X140431589Y-77899661D01*
X140139469Y-77884389D01*
X139849981Y-77926401D01*
X139574253Y-78024081D01*
X139436843Y-78097528D01*
X139359208Y-78346603D01*
X139127458Y-78346603D01*
X139107502Y-78280820D01*
X139048537Y-78170506D01*
X138969185Y-78073815D01*
X138872494Y-77994463D01*
X138762180Y-77935498D01*
X138642482Y-77899188D01*
X138518000Y-77886928D01*
X136818000Y-77886928D01*
X136693518Y-77899188D01*
X136573820Y-77935498D01*
X136463506Y-77994463D01*
X136366815Y-78073815D01*
X136287463Y-78170506D01*
X136228498Y-78280820D01*
X136192188Y-78400518D01*
X136179928Y-78525000D01*
X119197073Y-78525000D01*
X119107085Y-78307750D01*
X118889851Y-77982636D01*
X118613364Y-77706149D01*
X118288250Y-77488915D01*
X117927003Y-77339282D01*
X117543505Y-77263000D01*
X117152495Y-77263000D01*
X116768997Y-77339282D01*
X116407750Y-77488915D01*
X116082636Y-77706149D01*
X115806149Y-77982636D01*
X115588915Y-78307750D01*
X115439282Y-78668997D01*
X115363000Y-79052495D01*
X114960000Y-79052495D01*
X114960000Y-76860000D01*
X226670001Y-76860000D01*
X226670000Y-111100000D01*
%TA.AperFunction,Conductor*%
D18*
G36*
X226670000Y-111100000D02*
G01*
X114960000Y-111100000D01*
X114960000Y-108516495D01*
X115363000Y-108516495D01*
X115363000Y-108907505D01*
X115439282Y-109291003D01*
X115588915Y-109652250D01*
X115806149Y-109977364D01*
X116082636Y-110253851D01*
X116407750Y-110471085D01*
X116768997Y-110620718D01*
X117152495Y-110697000D01*
X117543505Y-110697000D01*
X117927003Y-110620718D01*
X118288250Y-110471085D01*
X118613364Y-110253851D01*
X118889851Y-109977364D01*
X119107085Y-109652250D01*
X119256718Y-109291003D01*
X119333000Y-108907505D01*
X119333000Y-108516495D01*
X222551000Y-108516495D01*
X222551000Y-108907505D01*
X222627282Y-109291003D01*
X222776915Y-109652250D01*
X222994149Y-109977364D01*
X223270636Y-110253851D01*
X223595750Y-110471085D01*
X223956997Y-110620718D01*
X224340495Y-110697000D01*
X224731505Y-110697000D01*
X225115003Y-110620718D01*
X225476250Y-110471085D01*
X225801364Y-110253851D01*
X226077851Y-109977364D01*
X226295085Y-109652250D01*
X226444718Y-109291003D01*
X226521000Y-108907505D01*
X226521000Y-108516495D01*
X226444718Y-108132997D01*
X226295085Y-107771750D01*
X226077851Y-107446636D01*
X225801364Y-107170149D01*
X225476250Y-106952915D01*
X225115003Y-106803282D01*
X224731505Y-106727000D01*
X224340495Y-106727000D01*
X223956997Y-106803282D01*
X223595750Y-106952915D01*
X223270636Y-107170149D01*
X222994149Y-107446636D01*
X222776915Y-107771750D01*
X222627282Y-108132997D01*
X222551000Y-108516495D01*
X119333000Y-108516495D01*
X119256718Y-108132997D01*
X119107085Y-107771750D01*
X118889851Y-107446636D01*
X118613364Y-107170149D01*
X118288250Y-106952915D01*
X117927003Y-106803282D01*
X117543505Y-106727000D01*
X117152495Y-106727000D01*
X116768997Y-106803282D01*
X116407750Y-106952915D01*
X116082636Y-107170149D01*
X115806149Y-107446636D01*
X115588915Y-107771750D01*
X115439282Y-108132997D01*
X115363000Y-108516495D01*
X114960000Y-108516495D01*
X114960000Y-89364801D01*
X116668790Y-91073592D01*
X116625000Y-91293740D01*
X116625000Y-91586260D01*
X116682068Y-91873158D01*
X116794010Y-92143411D01*
X116956525Y-92386632D01*
X117163368Y-92593475D01*
X117337760Y-92710000D01*
X117163368Y-92826525D01*
X116956525Y-93033368D01*
X116794010Y-93276589D01*
X116682068Y-93546842D01*
X116625000Y-93833740D01*
X116625000Y-94126260D01*
X116682068Y-94413158D01*
X116794010Y-94683411D01*
X116956525Y-94926632D01*
X117163368Y-95133475D01*
X117345534Y-95255195D01*
X117228645Y-95324822D01*
X117012412Y-95519731D01*
X116838359Y-95753080D01*
X116713175Y-96015901D01*
X116668524Y-96163110D01*
X116789845Y-96393000D01*
X117983000Y-96393000D01*
X117983000Y-96373000D01*
X118237000Y-96373000D01*
X118237000Y-96393000D01*
X118257000Y-96393000D01*
X118257000Y-96647000D01*
X118237000Y-96647000D01*
X118237000Y-96667000D01*
X117983000Y-96667000D01*
X117983000Y-96647000D01*
X116789845Y-96647000D01*
X116668524Y-96876890D01*
X116713175Y-97024099D01*
X116838359Y-97286920D01*
X117012412Y-97520269D01*
X117228645Y-97715178D01*
X117345534Y-97784805D01*
X117163368Y-97906525D01*
X116956525Y-98113368D01*
X116794010Y-98356589D01*
X116682068Y-98626842D01*
X116625000Y-98913740D01*
X116625000Y-99206260D01*
X116682068Y-99493158D01*
X116794010Y-99763411D01*
X116956525Y-100006632D01*
X117163368Y-100213475D01*
X117337760Y-100330000D01*
X117163368Y-100446525D01*
X116956525Y-100653368D01*
X116794010Y-100896589D01*
X116682068Y-101166842D01*
X116625000Y-101453740D01*
X116625000Y-101746260D01*
X116682068Y-102033158D01*
X116794010Y-102303411D01*
X116956525Y-102546632D01*
X117088380Y-102678487D01*
X117015820Y-102700498D01*
X116905506Y-102759463D01*
X116808815Y-102838815D01*
X116729463Y-102935506D01*
X116670498Y-103045820D01*
X116634188Y-103165518D01*
X116621928Y-103290000D01*
X116621928Y-104990000D01*
X116634188Y-105114482D01*
X116670498Y-105234180D01*
X116729463Y-105344494D01*
X116808815Y-105441185D01*
X116905506Y-105520537D01*
X117015820Y-105579502D01*
X117135518Y-105615812D01*
X117260000Y-105628072D01*
X118960000Y-105628072D01*
X119084482Y-105615812D01*
X119204180Y-105579502D01*
X119314494Y-105520537D01*
X119411185Y-105441185D01*
X119490537Y-105344494D01*
X119549502Y-105234180D01*
X119585812Y-105114482D01*
X119598072Y-104990000D01*
X119598072Y-103290000D01*
X119585812Y-103165518D01*
X119549502Y-103045820D01*
X119490537Y-102935506D01*
X119411185Y-102838815D01*
X119314494Y-102759463D01*
X119204180Y-102700498D01*
X119131620Y-102678487D01*
X119263475Y-102546632D01*
X119425990Y-102303411D01*
X119537932Y-102033158D01*
X119595000Y-101746260D01*
X119595000Y-101453740D01*
X119537932Y-101166842D01*
X119425990Y-100896589D01*
X119263475Y-100653368D01*
X119056632Y-100446525D01*
X118882240Y-100330000D01*
X119056632Y-100213475D01*
X119263475Y-100006632D01*
X119425990Y-99763411D01*
X119537932Y-99493158D01*
X119595000Y-99206260D01*
X119595000Y-98913740D01*
X119537932Y-98626842D01*
X119425990Y-98356589D01*
X119263475Y-98113368D01*
X119056632Y-97906525D01*
X118874466Y-97784805D01*
X118991355Y-97715178D01*
X119207588Y-97520269D01*
X119381641Y-97286920D01*
X119506825Y-97024099D01*
X119551476Y-96876890D01*
X119430156Y-96647002D01*
X119595000Y-96647002D01*
X119595000Y-96539801D01*
X121610201Y-98555003D01*
X121633999Y-98584001D01*
X121662997Y-98607799D01*
X121749723Y-98678974D01*
X121881753Y-98749546D01*
X122025014Y-98793003D01*
X122136667Y-98804000D01*
X122136677Y-98804000D01*
X122174000Y-98807676D01*
X122211323Y-98804000D01*
X174171928Y-98804000D01*
X174171928Y-100580000D01*
X174184188Y-100704482D01*
X174220498Y-100824180D01*
X174279463Y-100934494D01*
X174358815Y-101031185D01*
X174455506Y-101110537D01*
X174565820Y-101169502D01*
X174685518Y-101205812D01*
X174810000Y-101218072D01*
X178010000Y-101218072D01*
X178134482Y-101205812D01*
X178254180Y-101169502D01*
X178364494Y-101110537D01*
X178461185Y-101031185D01*
X178540537Y-100934494D01*
X178599502Y-100824180D01*
X178635812Y-100704482D01*
X178648072Y-100580000D01*
X178648072Y-98804000D01*
X179847676Y-98804000D01*
X179884998Y-98807676D01*
X179922320Y-98804000D01*
X179922331Y-98804000D01*
X180033984Y-98793003D01*
X180177245Y-98749546D01*
X180309274Y-98678974D01*
X180424999Y-98584001D01*
X180448802Y-98554997D01*
X181388386Y-97615413D01*
X182454192Y-97615413D01*
X182549956Y-97879814D01*
X182839571Y-98020704D01*
X183151108Y-98102384D01*
X183472595Y-98121718D01*
X183791675Y-98077961D01*
X184096088Y-97972795D01*
X184270044Y-97879814D01*
X184365808Y-97615413D01*
X183410000Y-96659605D01*
X182454192Y-97615413D01*
X181388386Y-97615413D01*
X181896794Y-97107006D01*
X181917205Y-97166088D01*
X182010186Y-97340044D01*
X182274587Y-97435808D01*
X183230395Y-96480000D01*
X183589605Y-96480000D01*
X184545413Y-97435808D01*
X184739771Y-97365413D01*
X193294192Y-97365413D01*
X193389956Y-97629814D01*
X193679571Y-97770704D01*
X193991108Y-97852384D01*
X194312595Y-97871718D01*
X194631675Y-97827961D01*
X194936088Y-97722795D01*
X195110044Y-97629814D01*
X195205808Y-97365413D01*
X199794192Y-97365413D01*
X199889956Y-97629814D01*
X200179571Y-97770704D01*
X200491108Y-97852384D01*
X200812595Y-97871718D01*
X201131675Y-97827961D01*
X201436088Y-97722795D01*
X201610044Y-97629814D01*
X201705808Y-97365413D01*
X211134192Y-97365413D01*
X211229956Y-97629814D01*
X211519571Y-97770704D01*
X211831108Y-97852384D01*
X212152595Y-97871718D01*
X212471675Y-97827961D01*
X212776088Y-97722795D01*
X212950044Y-97629814D01*
X213045808Y-97365413D01*
X217634192Y-97365413D01*
X217729956Y-97629814D01*
X218019571Y-97770704D01*
X218331108Y-97852384D01*
X218652595Y-97871718D01*
X218971675Y-97827961D01*
X219276088Y-97722795D01*
X219450044Y-97629814D01*
X219545808Y-97365413D01*
X218590000Y-96409605D01*
X217634192Y-97365413D01*
X213045808Y-97365413D01*
X212090000Y-96409605D01*
X211134192Y-97365413D01*
X201705808Y-97365413D01*
X200750000Y-96409605D01*
X199794192Y-97365413D01*
X195205808Y-97365413D01*
X194250000Y-96409605D01*
X193294192Y-97365413D01*
X184739771Y-97365413D01*
X184809814Y-97340044D01*
X184950704Y-97050429D01*
X185032384Y-96738892D01*
X185051718Y-96417405D01*
X185034603Y-96292595D01*
X192608282Y-96292595D01*
X192652039Y-96611675D01*
X192757205Y-96916088D01*
X192850186Y-97090044D01*
X193114587Y-97185808D01*
X194070395Y-96230000D01*
X194429605Y-96230000D01*
X195385413Y-97185808D01*
X195649814Y-97090044D01*
X195790704Y-96800429D01*
X195872384Y-96488892D01*
X195884189Y-96292595D01*
X199108282Y-96292595D01*
X199152039Y-96611675D01*
X199257205Y-96916088D01*
X199350186Y-97090044D01*
X199614587Y-97185808D01*
X200570395Y-96230000D01*
X200929605Y-96230000D01*
X201885413Y-97185808D01*
X202149814Y-97090044D01*
X202290704Y-96800429D01*
X202372384Y-96488892D01*
X202384189Y-96292595D01*
X210448282Y-96292595D01*
X210492039Y-96611675D01*
X210597205Y-96916088D01*
X210690186Y-97090044D01*
X210954587Y-97185808D01*
X211910395Y-96230000D01*
X212269605Y-96230000D01*
X213225413Y-97185808D01*
X213489814Y-97090044D01*
X213630704Y-96800429D01*
X213712384Y-96488892D01*
X213724189Y-96292595D01*
X216948282Y-96292595D01*
X216992039Y-96611675D01*
X217097205Y-96916088D01*
X217190186Y-97090044D01*
X217454587Y-97185808D01*
X218410395Y-96230000D01*
X218769605Y-96230000D01*
X219725413Y-97185808D01*
X219989814Y-97090044D01*
X220130704Y-96800429D01*
X220212384Y-96488892D01*
X220231718Y-96167405D01*
X220187961Y-95848325D01*
X220082795Y-95543912D01*
X219989814Y-95369956D01*
X219725413Y-95274192D01*
X218769605Y-96230000D01*
X218410395Y-96230000D01*
X217454587Y-95274192D01*
X217190186Y-95369956D01*
X217049296Y-95659571D01*
X216967616Y-95971108D01*
X216948282Y-96292595D01*
X213724189Y-96292595D01*
X213731718Y-96167405D01*
X213687961Y-95848325D01*
X213582795Y-95543912D01*
X213489814Y-95369956D01*
X213225413Y-95274192D01*
X212269605Y-96230000D01*
X211910395Y-96230000D01*
X210954587Y-95274192D01*
X210690186Y-95369956D01*
X210549296Y-95659571D01*
X210467616Y-95971108D01*
X210448282Y-96292595D01*
X202384189Y-96292595D01*
X202391718Y-96167405D01*
X202347961Y-95848325D01*
X202242795Y-95543912D01*
X202149814Y-95369956D01*
X201885413Y-95274192D01*
X200929605Y-96230000D01*
X200570395Y-96230000D01*
X199614587Y-95274192D01*
X199350186Y-95369956D01*
X199209296Y-95659571D01*
X199127616Y-95971108D01*
X199108282Y-96292595D01*
X195884189Y-96292595D01*
X195891718Y-96167405D01*
X195847961Y-95848325D01*
X195742795Y-95543912D01*
X195649814Y-95369956D01*
X195385413Y-95274192D01*
X194429605Y-96230000D01*
X194070395Y-96230000D01*
X193114587Y-95274192D01*
X192850186Y-95369956D01*
X192709296Y-95659571D01*
X192627616Y-95971108D01*
X192608282Y-96292595D01*
X185034603Y-96292595D01*
X185007961Y-96098325D01*
X184902795Y-95793912D01*
X184809814Y-95619956D01*
X184545413Y-95524192D01*
X183589605Y-96480000D01*
X183230395Y-96480000D01*
X183216253Y-96465858D01*
X183395858Y-96286253D01*
X183410000Y-96300395D01*
X184365808Y-95344587D01*
X184275260Y-95094587D01*
X193294192Y-95094587D01*
X194250000Y-96050395D01*
X195205808Y-95094587D01*
X199794192Y-95094587D01*
X200750000Y-96050395D01*
X201705808Y-95094587D01*
X211134192Y-95094587D01*
X212090000Y-96050395D01*
X213045808Y-95094587D01*
X217634192Y-95094587D01*
X218590000Y-96050395D01*
X219545808Y-95094587D01*
X219450044Y-94830186D01*
X219160429Y-94689296D01*
X218848892Y-94607616D01*
X218527405Y-94588282D01*
X218208325Y-94632039D01*
X217903912Y-94737205D01*
X217729956Y-94830186D01*
X217634192Y-95094587D01*
X213045808Y-95094587D01*
X212950044Y-94830186D01*
X212660429Y-94689296D01*
X212348892Y-94607616D01*
X212027405Y-94588282D01*
X211708325Y-94632039D01*
X211403912Y-94737205D01*
X211229956Y-94830186D01*
X211134192Y-95094587D01*
X201705808Y-95094587D01*
X201610044Y-94830186D01*
X201320429Y-94689296D01*
X201008892Y-94607616D01*
X200687405Y-94588282D01*
X200368325Y-94632039D01*
X200063912Y-94737205D01*
X199889956Y-94830186D01*
X199794192Y-95094587D01*
X195205808Y-95094587D01*
X195110044Y-94830186D01*
X194820429Y-94689296D01*
X194508892Y-94607616D01*
X194187405Y-94588282D01*
X193868325Y-94632039D01*
X193563912Y-94737205D01*
X193389956Y-94830186D01*
X193294192Y-95094587D01*
X184275260Y-95094587D01*
X184270044Y-95080186D01*
X184036989Y-94966811D01*
X186513801Y-92490000D01*
X192795091Y-92490000D01*
X192801082Y-92504463D01*
X192980013Y-92772252D01*
X193207748Y-92999987D01*
X193475537Y-93178918D01*
X193773088Y-93302168D01*
X194088967Y-93365000D01*
X194411033Y-93365000D01*
X194726912Y-93302168D01*
X195024463Y-93178918D01*
X195292252Y-92999987D01*
X195519987Y-92772252D01*
X195698918Y-92504463D01*
X195704909Y-92490000D01*
X199295091Y-92490000D01*
X199301082Y-92504463D01*
X199480013Y-92772252D01*
X199707748Y-92999987D01*
X199975537Y-93178918D01*
X200273088Y-93302168D01*
X200588967Y-93365000D01*
X200911033Y-93365000D01*
X201226912Y-93302168D01*
X201524463Y-93178918D01*
X201792252Y-92999987D01*
X202019987Y-92772252D01*
X202198918Y-92504463D01*
X202322168Y-92206912D01*
X202385000Y-91891033D01*
X202385000Y-91568967D01*
X202322168Y-91253088D01*
X202198918Y-90955537D01*
X202019987Y-90687748D01*
X201792252Y-90460013D01*
X201524463Y-90281082D01*
X201226912Y-90157832D01*
X200911033Y-90095000D01*
X200588967Y-90095000D01*
X200273088Y-90157832D01*
X199975537Y-90281082D01*
X199707748Y-90460013D01*
X199480013Y-90687748D01*
X199301082Y-90955537D01*
X199295091Y-90970000D01*
X195704909Y-90970000D01*
X195698918Y-90955537D01*
X195519987Y-90687748D01*
X195292252Y-90460013D01*
X195024463Y-90281082D01*
X194726912Y-90157832D01*
X194411033Y-90095000D01*
X194088967Y-90095000D01*
X193773088Y-90157832D01*
X193475537Y-90281082D01*
X193207748Y-90460013D01*
X192980013Y-90687748D01*
X192801082Y-90955537D01*
X192795091Y-90970000D01*
X186236320Y-90970000D01*
X186198997Y-90966324D01*
X186161674Y-90970000D01*
X186161665Y-90970000D01*
X186050012Y-90980997D01*
X185906751Y-91024454D01*
X185774722Y-91095026D01*
X185774720Y-91095027D01*
X185774721Y-91095027D01*
X185687994Y-91166201D01*
X185687990Y-91166205D01*
X185658997Y-91189999D01*
X185635203Y-91218992D01*
X185003245Y-91850950D01*
X185045000Y-91641033D01*
X185045000Y-91318967D01*
X184982168Y-91003088D01*
X184858918Y-90705537D01*
X184679987Y-90437748D01*
X184452252Y-90210013D01*
X184184463Y-90031082D01*
X183886912Y-89907832D01*
X183571033Y-89845000D01*
X183248967Y-89845000D01*
X182933088Y-89907832D01*
X182635537Y-90031082D01*
X182367748Y-90210013D01*
X182140013Y-90437748D01*
X181961082Y-90705537D01*
X181955091Y-90720000D01*
X176639800Y-90720000D01*
X175937872Y-90018072D01*
X178010000Y-90018072D01*
X178134482Y-90005812D01*
X178254180Y-89969502D01*
X178364494Y-89910537D01*
X178461185Y-89831185D01*
X178540537Y-89734494D01*
X178599502Y-89624180D01*
X178635812Y-89504482D01*
X178648072Y-89380000D01*
X178648072Y-87380000D01*
X178635812Y-87255518D01*
X178599502Y-87135820D01*
X178540537Y-87025506D01*
X178461185Y-86928815D01*
X178364494Y-86849463D01*
X178254180Y-86790498D01*
X178134482Y-86754188D01*
X178010000Y-86741928D01*
X174810000Y-86741928D01*
X174685518Y-86754188D01*
X174565820Y-86790498D01*
X174455506Y-86849463D01*
X174358815Y-86928815D01*
X174279463Y-87025506D01*
X174220498Y-87135820D01*
X174184188Y-87255518D01*
X174171928Y-87380000D01*
X174171928Y-88252128D01*
X169324798Y-83404999D01*
X202690198Y-83404999D01*
X210523823Y-91238625D01*
X210517832Y-91253088D01*
X210455000Y-91568967D01*
X210455000Y-91891033D01*
X210517832Y-92206912D01*
X210641082Y-92504463D01*
X210820013Y-92772252D01*
X211047748Y-92999987D01*
X211315537Y-93178918D01*
X211613088Y-93302168D01*
X211928967Y-93365000D01*
X212251033Y-93365000D01*
X212566912Y-93302168D01*
X212864463Y-93178918D01*
X213132252Y-92999987D01*
X213359987Y-92772252D01*
X213538918Y-92504463D01*
X213544909Y-92490000D01*
X217135091Y-92490000D01*
X217141082Y-92504463D01*
X217320013Y-92772252D01*
X217547748Y-92999987D01*
X217815537Y-93178918D01*
X218113088Y-93302168D01*
X218428967Y-93365000D01*
X218751033Y-93365000D01*
X219066912Y-93302168D01*
X219364463Y-93178918D01*
X219632252Y-92999987D01*
X219859987Y-92772252D01*
X220038918Y-92504463D01*
X220162168Y-92206912D01*
X220225000Y-91891033D01*
X220225000Y-91568967D01*
X220162168Y-91253088D01*
X220038918Y-90955537D01*
X219859987Y-90687748D01*
X219632252Y-90460013D01*
X219364463Y-90281082D01*
X219066912Y-90157832D01*
X218751033Y-90095000D01*
X218428967Y-90095000D01*
X218113088Y-90157832D01*
X217815537Y-90281082D01*
X217547748Y-90460013D01*
X217320013Y-90687748D01*
X217141082Y-90955537D01*
X217135091Y-90970000D01*
X213544909Y-90970000D01*
X213538918Y-90955537D01*
X213359987Y-90687748D01*
X213132252Y-90460013D01*
X212864463Y-90281082D01*
X212566912Y-90157832D01*
X212251033Y-90095000D01*
X211928967Y-90095000D01*
X211613088Y-90157832D01*
X211598625Y-90163823D01*
X203568803Y-82134002D01*
X203545000Y-82104998D01*
X203429275Y-82010025D01*
X203297246Y-81939453D01*
X203153985Y-81895996D01*
X203042332Y-81884999D01*
X203042321Y-81884999D01*
X203004999Y-81881323D01*
X202967677Y-81884999D01*
X117583322Y-81884999D01*
X117545999Y-81881323D01*
X117508676Y-81884999D01*
X117508666Y-81884999D01*
X117397013Y-81895996D01*
X117253752Y-81939453D01*
X117121722Y-82010025D01*
X117038082Y-82078667D01*
X117005998Y-82104998D01*
X116982200Y-82133996D01*
X114960000Y-84156197D01*
X114960000Y-79052495D01*
X115363000Y-79052495D01*
X115363000Y-79443505D01*
X115439282Y-79827003D01*
X115588915Y-80188250D01*
X115806149Y-80513364D01*
X116082636Y-80789851D01*
X116407750Y-81007085D01*
X116768997Y-81156718D01*
X117152495Y-81233000D01*
X117543505Y-81233000D01*
X117927003Y-81156718D01*
X118288250Y-81007085D01*
X118613364Y-80789851D01*
X118889851Y-80513364D01*
X119107085Y-80188250D01*
X119256718Y-79827003D01*
X119333000Y-79443505D01*
X119333000Y-79052495D01*
X119256718Y-78668997D01*
X119197073Y-78525000D01*
X136179928Y-78525000D01*
X136179928Y-80225000D01*
X136192188Y-80349482D01*
X136228498Y-80469180D01*
X136287463Y-80579494D01*
X136366815Y-80676185D01*
X136463506Y-80755537D01*
X136573820Y-80814502D01*
X136693518Y-80850812D01*
X136818000Y-80863072D01*
X138518000Y-80863072D01*
X138642482Y-80850812D01*
X138762180Y-80814502D01*
X138872494Y-80755537D01*
X138969185Y-80676185D01*
X139048537Y-80579494D01*
X139107502Y-80469180D01*
X139127457Y-80403397D01*
X139359208Y-80403397D01*
X139436843Y-80652472D01*
X139700883Y-80778371D01*
X139984411Y-80850339D01*
X140276531Y-80865611D01*
X140566019Y-80823599D01*
X140841747Y-80725919D01*
X140979157Y-80652472D01*
X141056792Y-80403397D01*
X140208000Y-79554605D01*
X139359208Y-80403397D01*
X139127457Y-80403397D01*
X139143812Y-80349482D01*
X139156072Y-80225000D01*
X139156072Y-80216458D01*
X139179603Y-80223792D01*
X140028395Y-79375000D01*
X140387605Y-79375000D01*
X141236397Y-80223792D01*
X141478689Y-80148271D01*
X141594525Y-80321632D01*
X141801368Y-80528475D01*
X142044589Y-80690990D01*
X142314842Y-80802932D01*
X142601740Y-80860000D01*
X142894260Y-80860000D01*
X143181158Y-80802932D01*
X143451411Y-80690990D01*
X143694632Y-80528475D01*
X143901475Y-80321632D01*
X144018000Y-80147240D01*
X144134525Y-80321632D01*
X144341368Y-80528475D01*
X144584589Y-80690990D01*
X144854842Y-80802932D01*
X145141740Y-80860000D01*
X145434260Y-80860000D01*
X145721158Y-80802932D01*
X145991411Y-80690990D01*
X146234632Y-80528475D01*
X146441475Y-80321632D01*
X146603990Y-80078411D01*
X146715932Y-79808158D01*
X146773000Y-79521260D01*
X146773000Y-79228740D01*
X146737943Y-79052495D01*
X222297000Y-79052495D01*
X222297000Y-79443505D01*
X222373282Y-79827003D01*
X222522915Y-80188250D01*
X222740149Y-80513364D01*
X223016636Y-80789851D01*
X223341750Y-81007085D01*
X223702997Y-81156718D01*
X224086495Y-81233000D01*
X224477505Y-81233000D01*
X224861003Y-81156718D01*
X225222250Y-81007085D01*
X225547364Y-80789851D01*
X225823851Y-80513364D01*
X226041085Y-80188250D01*
X226190718Y-79827003D01*
X226267000Y-79443505D01*
X226267000Y-79052495D01*
X226190718Y-78668997D01*
X226041085Y-78307750D01*
X225823851Y-77982636D01*
X225547364Y-77706149D01*
X225222250Y-77488915D01*
X224861003Y-77339282D01*
X224477505Y-77263000D01*
X224086495Y-77263000D01*
X223702997Y-77339282D01*
X223341750Y-77488915D01*
X223016636Y-77706149D01*
X222740149Y-77982636D01*
X222522915Y-78307750D01*
X222373282Y-78668997D01*
X222297000Y-79052495D01*
X146737943Y-79052495D01*
X146715932Y-78941842D01*
X146603990Y-78671589D01*
X146441475Y-78428368D01*
X146234632Y-78221525D01*
X145991411Y-78059010D01*
X145721158Y-77947068D01*
X145434260Y-77890000D01*
X145141740Y-77890000D01*
X144854842Y-77947068D01*
X144584589Y-78059010D01*
X144341368Y-78221525D01*
X144134525Y-78428368D01*
X144018000Y-78602760D01*
X143901475Y-78428368D01*
X143694632Y-78221525D01*
X143451411Y-78059010D01*
X143181158Y-77947068D01*
X142894260Y-77890000D01*
X142601740Y-77890000D01*
X142314842Y-77947068D01*
X142044589Y-78059010D01*
X141801368Y-78221525D01*
X141594525Y-78428368D01*
X141478689Y-78601729D01*
X141236397Y-78526208D01*
X140387605Y-79375000D01*
X140028395Y-79375000D01*
X139179603Y-78526208D01*
X139156072Y-78533542D01*
X139156072Y-78525000D01*
X139143812Y-78400518D01*
X139127458Y-78346603D01*
X139359208Y-78346603D01*
X140208000Y-79195395D01*
X141056792Y-78346603D01*
X140979157Y-78097528D01*
X140715117Y-77971629D01*
X140431589Y-77899661D01*
X140139469Y-77884389D01*
X139849981Y-77926401D01*
X139574253Y-78024081D01*
X139436843Y-78097528D01*
X139359208Y-78346603D01*
X139127458Y-78346603D01*
X139107502Y-78280820D01*
X139048537Y-78170506D01*
X138969185Y-78073815D01*
X138872494Y-77994463D01*
X138762180Y-77935498D01*
X138642482Y-77899188D01*
X138518000Y-77886928D01*
X136818000Y-77886928D01*
X136693518Y-77899188D01*
X136573820Y-77935498D01*
X136463506Y-77994463D01*
X136366815Y-78073815D01*
X136287463Y-78170506D01*
X136228498Y-78280820D01*
X136192188Y-78400518D01*
X136179928Y-78525000D01*
X119197073Y-78525000D01*
X119107085Y-78307750D01*
X118889851Y-77982636D01*
X118613364Y-77706149D01*
X118288250Y-77488915D01*
X117927003Y-77339282D01*
X117543505Y-77263000D01*
X117152495Y-77263000D01*
X116768997Y-77339282D01*
X116407750Y-77488915D01*
X116082636Y-77706149D01*
X115806149Y-77982636D01*
X115588915Y-78307750D01*
X115439282Y-78668997D01*
X115363000Y-79052495D01*
X114960000Y-79052495D01*
X114960000Y-76860000D01*
X226670001Y-76860000D01*
X226670000Y-111100000D01*
G37*
%TD.AperFunction*%
D17*
X175761199Y-91991003D02*
X175784997Y-92020001D01*
X175813995Y-92043799D01*
X175900721Y-92114974D01*
X176032749Y-92185545D01*
X176032751Y-92185546D01*
X176176012Y-92229003D01*
X176287665Y-92240000D01*
X176287675Y-92240000D01*
X176324998Y-92243676D01*
X176362321Y-92240000D01*
X181955091Y-92240000D01*
X181961082Y-92254463D01*
X182140013Y-92522252D01*
X182367748Y-92749987D01*
X182635537Y-92928918D01*
X182933088Y-93052168D01*
X183248967Y-93115000D01*
X183571033Y-93115000D01*
X183780951Y-93073245D01*
X179570197Y-97284000D01*
X170339182Y-97284000D01*
X170358918Y-97254463D01*
X170482168Y-96956912D01*
X170545000Y-96641033D01*
X170545000Y-96318967D01*
X170482168Y-96003088D01*
X170358918Y-95705537D01*
X170179987Y-95437748D01*
X169952252Y-95210013D01*
X169855065Y-95145075D01*
X169865808Y-95115413D01*
X168910000Y-94159605D01*
X167954192Y-95115413D01*
X167964935Y-95145075D01*
X167867748Y-95210013D01*
X167640013Y-95437748D01*
X167461082Y-95705537D01*
X167455091Y-95720000D01*
X125203804Y-95720000D01*
X119290295Y-89806492D01*
X119425990Y-89603411D01*
X119537932Y-89333158D01*
X119595000Y-89046260D01*
X119595000Y-88919802D01*
X122666205Y-91991008D01*
X122689999Y-92020001D01*
X122718992Y-92043795D01*
X122718996Y-92043799D01*
X122789685Y-92101811D01*
X122805724Y-92114974D01*
X122937753Y-92185546D01*
X123081014Y-92229003D01*
X123192667Y-92240000D01*
X123192676Y-92240000D01*
X123229999Y-92243676D01*
X123267322Y-92240000D01*
X167271928Y-92240000D01*
X167271928Y-92480000D01*
X167284188Y-92604482D01*
X167320498Y-92724180D01*
X167379463Y-92834494D01*
X167458815Y-92931185D01*
X167555506Y-93010537D01*
X167659223Y-93065976D01*
X167510186Y-93119956D01*
X167369296Y-93409571D01*
X167287616Y-93721108D01*
X167268282Y-94042595D01*
X167312039Y-94361675D01*
X167417205Y-94666088D01*
X167510186Y-94840044D01*
X167774587Y-94935808D01*
X168730395Y-93980000D01*
X168716253Y-93965858D01*
X168895858Y-93786253D01*
X168910000Y-93800395D01*
X168924143Y-93786253D01*
X169103748Y-93965858D01*
X169089605Y-93980000D01*
X170045413Y-94935808D01*
X170309814Y-94840044D01*
X170450704Y-94550429D01*
X170532384Y-94238892D01*
X170551718Y-93917405D01*
X170507961Y-93598325D01*
X170402795Y-93293912D01*
X170309814Y-93119956D01*
X170160777Y-93065976D01*
X170264494Y-93010537D01*
X170361185Y-92931185D01*
X170440537Y-92834494D01*
X170499502Y-92724180D01*
X170535812Y-92604482D01*
X170548072Y-92480000D01*
X170548072Y-90480000D01*
X170535812Y-90355518D01*
X170499502Y-90235820D01*
X170440537Y-90125506D01*
X170361185Y-90028815D01*
X170264494Y-89949463D01*
X170154180Y-89890498D01*
X170034482Y-89854188D01*
X169910000Y-89841928D01*
X167910000Y-89841928D01*
X167785518Y-89854188D01*
X167665820Y-89890498D01*
X167555506Y-89949463D01*
X167458815Y-90028815D01*
X167379463Y-90125506D01*
X167320498Y-90235820D01*
X167284188Y-90355518D01*
X167271928Y-90480000D01*
X167271928Y-90720000D01*
X123544803Y-90720000D01*
X119551209Y-86726408D01*
X119595000Y-86506260D01*
X119595000Y-86213740D01*
X119537932Y-85926842D01*
X119425990Y-85656589D01*
X119263475Y-85413368D01*
X119056632Y-85206525D01*
X118882240Y-85090000D01*
X119056632Y-84973475D01*
X119263475Y-84766632D01*
X119388178Y-84580000D01*
X168350197Y-84580000D01*
X175761199Y-91991003D01*
%TA.AperFunction,Conductor*%
D18*
G36*
X175761199Y-91991003D02*
G01*
X175784997Y-92020001D01*
X175813995Y-92043799D01*
X175900721Y-92114974D01*
X176032749Y-92185545D01*
X176032751Y-92185546D01*
X176176012Y-92229003D01*
X176287665Y-92240000D01*
X176287675Y-92240000D01*
X176324998Y-92243676D01*
X176362321Y-92240000D01*
X181955091Y-92240000D01*
X181961082Y-92254463D01*
X182140013Y-92522252D01*
X182367748Y-92749987D01*
X182635537Y-92928918D01*
X182933088Y-93052168D01*
X183248967Y-93115000D01*
X183571033Y-93115000D01*
X183780951Y-93073245D01*
X179570197Y-97284000D01*
X170339182Y-97284000D01*
X170358918Y-97254463D01*
X170482168Y-96956912D01*
X170545000Y-96641033D01*
X170545000Y-96318967D01*
X170482168Y-96003088D01*
X170358918Y-95705537D01*
X170179987Y-95437748D01*
X169952252Y-95210013D01*
X169855065Y-95145075D01*
X169865808Y-95115413D01*
X168910000Y-94159605D01*
X167954192Y-95115413D01*
X167964935Y-95145075D01*
X167867748Y-95210013D01*
X167640013Y-95437748D01*
X167461082Y-95705537D01*
X167455091Y-95720000D01*
X125203804Y-95720000D01*
X119290295Y-89806492D01*
X119425990Y-89603411D01*
X119537932Y-89333158D01*
X119595000Y-89046260D01*
X119595000Y-88919802D01*
X122666205Y-91991008D01*
X122689999Y-92020001D01*
X122718992Y-92043795D01*
X122718996Y-92043799D01*
X122789685Y-92101811D01*
X122805724Y-92114974D01*
X122937753Y-92185546D01*
X123081014Y-92229003D01*
X123192667Y-92240000D01*
X123192676Y-92240000D01*
X123229999Y-92243676D01*
X123267322Y-92240000D01*
X167271928Y-92240000D01*
X167271928Y-92480000D01*
X167284188Y-92604482D01*
X167320498Y-92724180D01*
X167379463Y-92834494D01*
X167458815Y-92931185D01*
X167555506Y-93010537D01*
X167659223Y-93065976D01*
X167510186Y-93119956D01*
X167369296Y-93409571D01*
X167287616Y-93721108D01*
X167268282Y-94042595D01*
X167312039Y-94361675D01*
X167417205Y-94666088D01*
X167510186Y-94840044D01*
X167774587Y-94935808D01*
X168730395Y-93980000D01*
X168716253Y-93965858D01*
X168895858Y-93786253D01*
X168910000Y-93800395D01*
X168924143Y-93786253D01*
X169103748Y-93965858D01*
X169089605Y-93980000D01*
X170045413Y-94935808D01*
X170309814Y-94840044D01*
X170450704Y-94550429D01*
X170532384Y-94238892D01*
X170551718Y-93917405D01*
X170507961Y-93598325D01*
X170402795Y-93293912D01*
X170309814Y-93119956D01*
X170160777Y-93065976D01*
X170264494Y-93010537D01*
X170361185Y-92931185D01*
X170440537Y-92834494D01*
X170499502Y-92724180D01*
X170535812Y-92604482D01*
X170548072Y-92480000D01*
X170548072Y-90480000D01*
X170535812Y-90355518D01*
X170499502Y-90235820D01*
X170440537Y-90125506D01*
X170361185Y-90028815D01*
X170264494Y-89949463D01*
X170154180Y-89890498D01*
X170034482Y-89854188D01*
X169910000Y-89841928D01*
X167910000Y-89841928D01*
X167785518Y-89854188D01*
X167665820Y-89890498D01*
X167555506Y-89949463D01*
X167458815Y-90028815D01*
X167379463Y-90125506D01*
X167320498Y-90235820D01*
X167284188Y-90355518D01*
X167271928Y-90480000D01*
X167271928Y-90720000D01*
X123544803Y-90720000D01*
X119551209Y-86726408D01*
X119595000Y-86506260D01*
X119595000Y-86213740D01*
X119537932Y-85926842D01*
X119425990Y-85656589D01*
X119263475Y-85413368D01*
X119056632Y-85206525D01*
X118882240Y-85090000D01*
X119056632Y-84973475D01*
X119263475Y-84766632D01*
X119388178Y-84580000D01*
X168350197Y-84580000D01*
X175761199Y-91991003D01*
G37*
%TD.AperFunction*%
%TD*%
M02*
